solid ASCII
  facet normal 4.245541e-17 -1.205367e-01 -9.927089e-01
    outer loop
      vertex   1.600000e+01 2.739316e+00 -1.040291e+02
      vertex   1.600000e+01 2.500000e+00 -1.040000e+02
      vertex   1.100000e+01 2.500000e+00 -1.040000e+02
    endloop
  endfacet
  facet normal -4.282323e-17 1.205367e-01 -9.927089e-01
    outer loop
      vertex   1.100000e+01 2.500000e+00 -1.040000e+02
      vertex   1.600000e+01 2.500000e+00 -1.040000e+02
      vertex   1.600000e+01 2.260684e+00 -1.040291e+02
    endloop
  endfacet
  facet normal 2.330312e-04 1.253332e-01 -9.921147e-01
    outer loop
      vertex   1.100000e+01 2.500000e+00 -1.040000e+02
      vertex   1.600000e+01 2.260684e+00 -1.040291e+02
      vertex   1.100000e+01 2.251310e+00 -1.040314e+02
    endloop
  endfacet
  facet normal -2.237527e-04 3.546049e-01 -9.350162e-01
    outer loop
      vertex   1.100000e+01 2.251310e+00 -1.040314e+02
      vertex   1.600000e+01 2.260684e+00 -1.040291e+02
      vertex   1.600000e+01 2.035277e+00 -1.041145e+02
    endloop
  endfacet
  facet normal 4.475000e-04 3.681245e-01 -9.297764e-01
    outer loop
      vertex   1.100000e+01 2.251310e+00 -1.040314e+02
      vertex   1.600000e+01 2.035277e+00 -1.041145e+02
      vertex   1.100000e+01 2.018246e+00 -1.041237e+02
    endloop
  endfacet
  facet normal -4.289328e-04 5.680647e-01 -8.229838e-01
    outer loop
      vertex   1.100000e+01 2.018246e+00 -1.041237e+02
      vertex   1.600000e+01 2.035277e+00 -1.041145e+02
      vertex   1.600000e+01 1.836877e+00 -1.042515e+02
    endloop
  endfacet
  facet normal 6.433865e-04 5.877851e-01 -8.090168e-01
    outer loop
      vertex   1.100000e+01 2.018246e+00 -1.041237e+02
      vertex   1.600000e+01 1.836877e+00 -1.042515e+02
      vertex   1.100000e+01 1.815453e+00 -1.042710e+02
    endloop
  endfacet
  facet normal -6.155211e-04 7.485106e-01 -6.631225e-01
    outer loop
      vertex   1.100000e+01 1.815453e+00 -1.042710e+02
      vertex   1.600000e+01 1.836877e+00 -1.042515e+02
      vertex   1.600000e+01 1.677016e+00 -1.044319e+02
    endloop
  endfacet
  facet normal 8.206724e-04 7.705130e-01 -6.374238e-01
    outer loop
      vertex   1.100000e+01 1.815453e+00 -1.042710e+02
      vertex   1.600000e+01 1.677016e+00 -1.044319e+02
      vertex   1.100000e+01 1.655672e+00 -1.044642e+02
    endloop
  endfacet
  facet normal -7.835004e-04 8.854558e-01 -4.647230e-01
    outer loop
      vertex   1.100000e+01 1.655672e+00 -1.044642e+02
      vertex   1.600000e+01 1.677016e+00 -1.044319e+02
      vertex   1.600000e+01 1.564984e+00 -1.046454e+02
    endloop
  endfacet
  facet normal 9.793410e-04 9.048266e-01 -4.257791e-01
    outer loop
      vertex   1.100000e+01 1.655672e+00 -1.044642e+02
      vertex   1.600000e+01 1.564984e+00 -1.046454e+02
      vertex   1.100000e+01 1.548944e+00 -1.046910e+02
    endloop
  endfacet
  facet normal -9.328547e-04 9.709414e-01 -2.393156e-01
    outer loop
      vertex   1.100000e+01 1.548944e+00 -1.046910e+02
      vertex   1.600000e+01 1.564984e+00 -1.046454e+02
      vertex   1.600000e+01 1.507291e+00 -1.048795e+02
    endloop
  endfacet
  facet normal 1.119377e-03 9.822866e-01 -1.873812e-01
    outer loop
      vertex   1.100000e+01 1.548944e+00 -1.046910e+02
      vertex   1.600000e+01 1.507291e+00 -1.048795e+02
      vertex   1.100000e+01 1.501973e+00 -1.049372e+02
    endloop
  endfacet
  facet normal -1.063570e-03 9.999994e-01 0.000000e+00
    outer loop
      vertex   1.100000e+01 1.501973e+00 -1.049372e+02
      vertex   1.600000e+01 1.507291e+00 -1.048795e+02
      vertex   1.600000e+01 1.507291e+00 -1.051205e+02
    endloop
  endfacet
  facet normal 1.240769e-03 9.980260e-01 6.279047e-02
    outer loop
      vertex   1.100000e+01 1.501973e+00 -1.049372e+02
      vertex   1.600000e+01 1.507291e+00 -1.051205e+02
      vertex   1.100000e+01 1.517713e+00 -1.051874e+02
    endloop
  endfacet
  facet normal -1.175635e-03 9.709411e-01 2.393155e-01
    outer loop
      vertex   1.100000e+01 1.517713e+00 -1.051874e+02
      vertex   1.600000e+01 1.507291e+00 -1.051205e+02
      vertex   1.600000e+01 1.564984e+00 -1.053546e+02
    endloop
  endfacet
  facet normal 1.343504e-03 9.510557e-01 3.090167e-01
    outer loop
      vertex   1.100000e+01 1.517713e+00 -1.051874e+02
      vertex   1.600000e+01 1.564984e+00 -1.053546e+02
      vertex   1.100000e+01 1.595173e+00 -1.054258e+02
    endloop
  endfacet
  facet normal -1.269038e-03 8.854553e-01 4.647228e-01
    outer loop
      vertex   1.100000e+01 1.595173e+00 -1.054258e+02
      vertex   1.600000e+01 1.564984e+00 -1.053546e+02
      vertex   1.600000e+01 1.677016e+00 -1.055681e+02
    endloop
  endfacet
  facet normal 1.427573e-03 8.443271e-01 5.358262e-01
    outer loop
      vertex   1.100000e+01 1.595173e+00 -1.054258e+02
      vertex   1.600000e+01 1.677016e+00 -1.055681e+02
      vertex   1.100000e+01 1.729487e+00 -1.056374e+02
    endloop
  endfacet
  facet normal -1.343771e-03 7.485101e-01 6.631221e-01
    outer loop
      vertex   1.100000e+01 1.729487e+00 -1.056374e+02
      vertex   1.600000e+01 1.677016e+00 -1.055681e+02
      vertex   1.600000e+01 1.836877e+00 -1.057485e+02
    endloop
  endfacet
  facet normal 1.492968e-03 6.845463e-01 7.289678e-01
    outer loop
      vertex   1.100000e+01 1.729487e+00 -1.056374e+02
      vertex   1.600000e+01 1.836877e+00 -1.057485e+02
      vertex   1.100000e+01 1.912215e+00 -1.058090e+02
    endloop
  endfacet
  facet normal -1.399827e-03 5.680642e-01 8.229831e-01
    outer loop
      vertex   1.100000e+01 1.912215e+00 -1.058090e+02
      vertex   1.600000e+01 1.836877e+00 -1.057485e+02
      vertex   1.600000e+01 2.035277e+00 -1.058855e+02
    endloop
  endfacet
  facet normal 1.539683e-03 4.817531e-01 8.763056e-01
    outer loop
      vertex   1.100000e+01 1.912215e+00 -1.058090e+02
      vertex   1.600000e+01 2.035277e+00 -1.058855e+02
      vertex   1.100000e+01 2.131875e+00 -1.059298e+02
    endloop
  endfacet
  facet normal -1.437200e-03 3.546045e-01 9.350153e-01
    outer loop
      vertex   1.100000e+01 2.131875e+00 -1.059298e+02
      vertex   1.600000e+01 2.035277e+00 -1.058855e+02
      vertex   1.600000e+01 2.260684e+00 -1.059709e+02
    endloop
  endfacet
  facet normal 1.567714e-03 2.486896e-01 9.685820e-01
    outer loop
      vertex   1.100000e+01 2.131875e+00 -1.059298e+02
      vertex   1.600000e+01 2.260684e+00 -1.059709e+02
      vertex   1.100000e+01 2.374667e+00 -1.059921e+02
    endloop
  endfacet
  facet normal -1.455888e-03 1.205366e-01 9.927078e-01
    outer loop
      vertex   1.100000e+01 2.374667e+00 -1.059921e+02
      vertex   1.600000e+01 2.260684e+00 -1.059709e+02
      vertex   1.600000e+01 2.500000e+00 -1.060000e+02
    endloop
  endfacet
  facet normal 1.577058e-03 -0.000000e+00 9.999988e-01
    outer loop
      vertex   1.100000e+01 2.374667e+00 -1.059921e+02
      vertex   1.600000e+01 2.500000e+00 -1.060000e+02
      vertex   1.100000e+01 2.625333e+00 -1.059921e+02
    endloop
  endfacet
  facet normal -1.455888e-03 -1.205366e-01 9.927078e-01
    outer loop
      vertex   1.100000e+01 2.625333e+00 -1.059921e+02
      vertex   1.600000e+01 2.500000e+00 -1.060000e+02
      vertex   1.600000e+01 2.739316e+00 -1.059709e+02
    endloop
  endfacet
  facet normal 1.567714e-03 -2.486896e-01 9.685820e-01
    outer loop
      vertex   1.100000e+01 2.625333e+00 -1.059921e+02
      vertex   1.600000e+01 2.739316e+00 -1.059709e+02
      vertex   1.100000e+01 2.868125e+00 -1.059298e+02
    endloop
  endfacet
  facet normal -1.437200e-03 -3.546045e-01 9.350153e-01
    outer loop
      vertex   1.100000e+01 2.868125e+00 -1.059298e+02
      vertex   1.600000e+01 2.739316e+00 -1.059709e+02
      vertex   1.600000e+01 2.964723e+00 -1.058855e+02
    endloop
  endfacet
  facet normal 1.539683e-03 -4.817531e-01 8.763056e-01
    outer loop
      vertex   1.100000e+01 2.868125e+00 -1.059298e+02
      vertex   1.600000e+01 2.964723e+00 -1.058855e+02
      vertex   1.100000e+01 3.087785e+00 -1.058090e+02
    endloop
  endfacet
  facet normal -1.399827e-03 -5.680642e-01 8.229831e-01
    outer loop
      vertex   1.100000e+01 3.087785e+00 -1.058090e+02
      vertex   1.600000e+01 2.964723e+00 -1.058855e+02
      vertex   1.600000e+01 3.163123e+00 -1.057485e+02
    endloop
  endfacet
  facet normal 1.492968e-03 -6.845463e-01 7.289678e-01
    outer loop
      vertex   1.100000e+01 3.087785e+00 -1.058090e+02
      vertex   1.600000e+01 3.163123e+00 -1.057485e+02
      vertex   1.100000e+01 3.270513e+00 -1.056374e+02
    endloop
  endfacet
  facet normal -1.343771e-03 -7.485101e-01 6.631221e-01
    outer loop
      vertex   1.100000e+01 3.270513e+00 -1.056374e+02
      vertex   1.600000e+01 3.163123e+00 -1.057485e+02
      vertex   1.600000e+01 3.322984e+00 -1.055681e+02
    endloop
  endfacet
  facet normal 1.427573e-03 -8.443271e-01 5.358262e-01
    outer loop
      vertex   1.100000e+01 3.270513e+00 -1.056374e+02
      vertex   1.600000e+01 3.322984e+00 -1.055681e+02
      vertex   1.100000e+01 3.404827e+00 -1.054258e+02
    endloop
  endfacet
  facet normal -1.269038e-03 -8.854553e-01 4.647228e-01
    outer loop
      vertex   1.100000e+01 3.404827e+00 -1.054258e+02
      vertex   1.600000e+01 3.322984e+00 -1.055681e+02
      vertex   1.600000e+01 3.435016e+00 -1.053546e+02
    endloop
  endfacet
  facet normal 1.343504e-03 -9.510557e-01 3.090167e-01
    outer loop
      vertex   1.100000e+01 3.404827e+00 -1.054258e+02
      vertex   1.600000e+01 3.435016e+00 -1.053546e+02
      vertex   1.100000e+01 3.482287e+00 -1.051874e+02
    endloop
  endfacet
  facet normal -1.175635e-03 -9.709411e-01 2.393155e-01
    outer loop
      vertex   1.100000e+01 3.482287e+00 -1.051874e+02
      vertex   1.600000e+01 3.435016e+00 -1.053546e+02
      vertex   1.600000e+01 3.492709e+00 -1.051205e+02
    endloop
  endfacet
  facet normal 1.240769e-03 -9.980260e-01 6.279047e-02
    outer loop
      vertex   1.100000e+01 3.482287e+00 -1.051874e+02
      vertex   1.600000e+01 3.492709e+00 -1.051205e+02
      vertex   1.100000e+01 3.498027e+00 -1.049372e+02
    endloop
  endfacet
  facet normal -1.063570e-03 -9.999994e-01 0.000000e+00
    outer loop
      vertex   1.100000e+01 3.498027e+00 -1.049372e+02
      vertex   1.600000e+01 3.492709e+00 -1.051205e+02
      vertex   1.600000e+01 3.492709e+00 -1.048795e+02
    endloop
  endfacet
  facet normal 1.119377e-03 -9.822866e-01 -1.873812e-01
    outer loop
      vertex   1.100000e+01 3.498027e+00 -1.049372e+02
      vertex   1.600000e+01 3.492709e+00 -1.048795e+02
      vertex   1.100000e+01 3.451057e+00 -1.046910e+02
    endloop
  endfacet
  facet normal -9.328547e-04 -9.709414e-01 -2.393156e-01
    outer loop
      vertex   1.100000e+01 3.451057e+00 -1.046910e+02
      vertex   1.600000e+01 3.492709e+00 -1.048795e+02
      vertex   1.600000e+01 3.435016e+00 -1.046454e+02
    endloop
  endfacet
  facet normal 9.793410e-04 -9.048266e-01 -4.257791e-01
    outer loop
      vertex   1.100000e+01 3.451057e+00 -1.046910e+02
      vertex   1.600000e+01 3.435016e+00 -1.046454e+02
      vertex   1.100000e+01 3.344328e+00 -1.044642e+02
    endloop
  endfacet
  facet normal -7.835004e-04 -8.854558e-01 -4.647230e-01
    outer loop
      vertex   1.100000e+01 3.344328e+00 -1.044642e+02
      vertex   1.600000e+01 3.435016e+00 -1.046454e+02
      vertex   1.600000e+01 3.322984e+00 -1.044319e+02
    endloop
  endfacet
  facet normal 8.206724e-04 -7.705130e-01 -6.374238e-01
    outer loop
      vertex   1.100000e+01 3.344328e+00 -1.044642e+02
      vertex   1.600000e+01 3.322984e+00 -1.044319e+02
      vertex   1.100000e+01 3.184547e+00 -1.042710e+02
    endloop
  endfacet
  facet normal -6.155211e-04 -7.485106e-01 -6.631225e-01
    outer loop
      vertex   1.100000e+01 3.184547e+00 -1.042710e+02
      vertex   1.600000e+01 3.322984e+00 -1.044319e+02
      vertex   1.600000e+01 3.163123e+00 -1.042515e+02
    endloop
  endfacet
  facet normal 6.433865e-04 -5.877851e-01 -8.090168e-01
    outer loop
      vertex   1.100000e+01 3.184547e+00 -1.042710e+02
      vertex   1.600000e+01 3.163123e+00 -1.042515e+02
      vertex   1.100000e+01 2.981754e+00 -1.041237e+02
    endloop
  endfacet
  facet normal -4.289328e-04 -5.680647e-01 -8.229838e-01
    outer loop
      vertex   1.100000e+01 2.981754e+00 -1.041237e+02
      vertex   1.600000e+01 3.163123e+00 -1.042515e+02
      vertex   1.600000e+01 2.964723e+00 -1.041145e+02
    endloop
  endfacet
  facet normal 4.475000e-04 -3.681245e-01 -9.297764e-01
    outer loop
      vertex   1.100000e+01 2.981754e+00 -1.041237e+02
      vertex   1.600000e+01 2.964723e+00 -1.041145e+02
      vertex   1.100000e+01 2.748690e+00 -1.040314e+02
    endloop
  endfacet
  facet normal -2.237527e-04 -3.546049e-01 -9.350162e-01
    outer loop
      vertex   1.100000e+01 2.748690e+00 -1.040314e+02
      vertex   1.600000e+01 2.964723e+00 -1.041145e+02
      vertex   1.600000e+01 2.739316e+00 -1.040291e+02
    endloop
  endfacet
  facet normal 2.330312e-04 -1.253332e-01 -9.921147e-01
    outer loop
      vertex   1.100000e+01 2.748690e+00 -1.040314e+02
      vertex   1.600000e+01 2.739316e+00 -1.040291e+02
      vertex   1.100000e+01 2.500000e+00 -1.040000e+02
    endloop
  endfacet
  facet normal -5.396874e-17 1.205367e-01 -9.927089e-01
    outer loop
      vertex   6.000000e+00 2.260684e+00 -1.040291e+02
      vertex   6.000000e+00 2.500000e+00 -1.040000e+02
      vertex   1.100000e+01 2.500000e+00 -1.040000e+02
    endloop
  endfacet
  facet normal 5.352904e-17 -1.205367e-01 -9.927089e-01
    outer loop
      vertex   1.100000e+01 2.500000e+00 -1.040000e+02
      vertex   6.000000e+00 2.500000e+00 -1.040000e+02
      vertex   6.000000e+00 2.739316e+00 -1.040291e+02
    endloop
  endfacet
  facet normal -2.330312e-04 -1.253332e-01 -9.921147e-01
    outer loop
      vertex   1.100000e+01 2.500000e+00 -1.040000e+02
      vertex   6.000000e+00 2.739316e+00 -1.040291e+02
      vertex   1.100000e+01 2.748690e+00 -1.040314e+02
    endloop
  endfacet
  facet normal 2.237527e-04 -3.546049e-01 -9.350162e-01
    outer loop
      vertex   1.100000e+01 2.748690e+00 -1.040314e+02
      vertex   6.000000e+00 2.739316e+00 -1.040291e+02
      vertex   6.000000e+00 2.964723e+00 -1.041145e+02
    endloop
  endfacet
  facet normal -4.475000e-04 -3.681245e-01 -9.297764e-01
    outer loop
      vertex   1.100000e+01 2.748690e+00 -1.040314e+02
      vertex   6.000000e+00 2.964723e+00 -1.041145e+02
      vertex   1.100000e+01 2.981754e+00 -1.041237e+02
    endloop
  endfacet
  facet normal 4.289328e-04 -5.680647e-01 -8.229838e-01
    outer loop
      vertex   1.100000e+01 2.981754e+00 -1.041237e+02
      vertex   6.000000e+00 2.964723e+00 -1.041145e+02
      vertex   6.000000e+00 3.163123e+00 -1.042515e+02
    endloop
  endfacet
  facet normal -6.433865e-04 -5.877851e-01 -8.090168e-01
    outer loop
      vertex   1.100000e+01 2.981754e+00 -1.041237e+02
      vertex   6.000000e+00 3.163123e+00 -1.042515e+02
      vertex   1.100000e+01 3.184547e+00 -1.042710e+02
    endloop
  endfacet
  facet normal 6.155211e-04 -7.485106e-01 -6.631225e-01
    outer loop
      vertex   1.100000e+01 3.184547e+00 -1.042710e+02
      vertex   6.000000e+00 3.163123e+00 -1.042515e+02
      vertex   6.000000e+00 3.322984e+00 -1.044319e+02
    endloop
  endfacet
  facet normal -8.206724e-04 -7.705130e-01 -6.374238e-01
    outer loop
      vertex   1.100000e+01 3.184547e+00 -1.042710e+02
      vertex   6.000000e+00 3.322984e+00 -1.044319e+02
      vertex   1.100000e+01 3.344328e+00 -1.044642e+02
    endloop
  endfacet
  facet normal 7.835004e-04 -8.854558e-01 -4.647230e-01
    outer loop
      vertex   1.100000e+01 3.344328e+00 -1.044642e+02
      vertex   6.000000e+00 3.322984e+00 -1.044319e+02
      vertex   6.000000e+00 3.435016e+00 -1.046454e+02
    endloop
  endfacet
  facet normal -9.793410e-04 -9.048266e-01 -4.257791e-01
    outer loop
      vertex   1.100000e+01 3.344328e+00 -1.044642e+02
      vertex   6.000000e+00 3.435016e+00 -1.046454e+02
      vertex   1.100000e+01 3.451057e+00 -1.046910e+02
    endloop
  endfacet
  facet normal 9.328547e-04 -9.709414e-01 -2.393156e-01
    outer loop
      vertex   1.100000e+01 3.451057e+00 -1.046910e+02
      vertex   6.000000e+00 3.435016e+00 -1.046454e+02
      vertex   6.000000e+00 3.492709e+00 -1.048795e+02
    endloop
  endfacet
  facet normal -1.119377e-03 -9.822866e-01 -1.873812e-01
    outer loop
      vertex   1.100000e+01 3.451057e+00 -1.046910e+02
      vertex   6.000000e+00 3.492709e+00 -1.048795e+02
      vertex   1.100000e+01 3.498027e+00 -1.049372e+02
    endloop
  endfacet
  facet normal 1.063570e-03 -9.999994e-01 0.000000e+00
    outer loop
      vertex   1.100000e+01 3.498027e+00 -1.049372e+02
      vertex   6.000000e+00 3.492709e+00 -1.048795e+02
      vertex   6.000000e+00 3.492709e+00 -1.051205e+02
    endloop
  endfacet
  facet normal -1.240769e-03 -9.980260e-01 6.279047e-02
    outer loop
      vertex   1.100000e+01 3.498027e+00 -1.049372e+02
      vertex   6.000000e+00 3.492709e+00 -1.051205e+02
      vertex   1.100000e+01 3.482287e+00 -1.051874e+02
    endloop
  endfacet
  facet normal 1.175635e-03 -9.709411e-01 2.393155e-01
    outer loop
      vertex   1.100000e+01 3.482287e+00 -1.051874e+02
      vertex   6.000000e+00 3.492709e+00 -1.051205e+02
      vertex   6.000000e+00 3.435016e+00 -1.053546e+02
    endloop
  endfacet
  facet normal -1.343504e-03 -9.510557e-01 3.090167e-01
    outer loop
      vertex   1.100000e+01 3.482287e+00 -1.051874e+02
      vertex   6.000000e+00 3.435016e+00 -1.053546e+02
      vertex   1.100000e+01 3.404827e+00 -1.054258e+02
    endloop
  endfacet
  facet normal 1.269038e-03 -8.854553e-01 4.647228e-01
    outer loop
      vertex   1.100000e+01 3.404827e+00 -1.054258e+02
      vertex   6.000000e+00 3.435016e+00 -1.053546e+02
      vertex   6.000000e+00 3.322984e+00 -1.055681e+02
    endloop
  endfacet
  facet normal -1.427573e-03 -8.443271e-01 5.358262e-01
    outer loop
      vertex   1.100000e+01 3.404827e+00 -1.054258e+02
      vertex   6.000000e+00 3.322984e+00 -1.055681e+02
      vertex   1.100000e+01 3.270513e+00 -1.056374e+02
    endloop
  endfacet
  facet normal 1.343771e-03 -7.485101e-01 6.631221e-01
    outer loop
      vertex   1.100000e+01 3.270513e+00 -1.056374e+02
      vertex   6.000000e+00 3.322984e+00 -1.055681e+02
      vertex   6.000000e+00 3.163123e+00 -1.057485e+02
    endloop
  endfacet
  facet normal -1.492968e-03 -6.845463e-01 7.289678e-01
    outer loop
      vertex   1.100000e+01 3.270513e+00 -1.056374e+02
      vertex   6.000000e+00 3.163123e+00 -1.057485e+02
      vertex   1.100000e+01 3.087785e+00 -1.058090e+02
    endloop
  endfacet
  facet normal 1.399827e-03 -5.680642e-01 8.229831e-01
    outer loop
      vertex   1.100000e+01 3.087785e+00 -1.058090e+02
      vertex   6.000000e+00 3.163123e+00 -1.057485e+02
      vertex   6.000000e+00 2.964723e+00 -1.058855e+02
    endloop
  endfacet
  facet normal -1.539683e-03 -4.817531e-01 8.763056e-01
    outer loop
      vertex   1.100000e+01 3.087785e+00 -1.058090e+02
      vertex   6.000000e+00 2.964723e+00 -1.058855e+02
      vertex   1.100000e+01 2.868125e+00 -1.059298e+02
    endloop
  endfacet
  facet normal 1.437200e-03 -3.546045e-01 9.350153e-01
    outer loop
      vertex   1.100000e+01 2.868125e+00 -1.059298e+02
      vertex   6.000000e+00 2.964723e+00 -1.058855e+02
      vertex   6.000000e+00 2.739316e+00 -1.059709e+02
    endloop
  endfacet
  facet normal -1.567714e-03 -2.486896e-01 9.685820e-01
    outer loop
      vertex   1.100000e+01 2.868125e+00 -1.059298e+02
      vertex   6.000000e+00 2.739316e+00 -1.059709e+02
      vertex   1.100000e+01 2.625333e+00 -1.059921e+02
    endloop
  endfacet
  facet normal 1.455888e-03 -1.205366e-01 9.927078e-01
    outer loop
      vertex   1.100000e+01 2.625333e+00 -1.059921e+02
      vertex   6.000000e+00 2.739316e+00 -1.059709e+02
      vertex   6.000000e+00 2.500000e+00 -1.060000e+02
    endloop
  endfacet
  facet normal -1.577058e-03 0.000000e+00 9.999988e-01
    outer loop
      vertex   1.100000e+01 2.625333e+00 -1.059921e+02
      vertex   6.000000e+00 2.500000e+00 -1.060000e+02
      vertex   1.100000e+01 2.374667e+00 -1.059921e+02
    endloop
  endfacet
  facet normal 1.455888e-03 1.205366e-01 9.927078e-01
    outer loop
      vertex   1.100000e+01 2.374667e+00 -1.059921e+02
      vertex   6.000000e+00 2.500000e+00 -1.060000e+02
      vertex   6.000000e+00 2.260684e+00 -1.059709e+02
    endloop
  endfacet
  facet normal -1.567714e-03 2.486896e-01 9.685820e-01
    outer loop
      vertex   1.100000e+01 2.374667e+00 -1.059921e+02
      vertex   6.000000e+00 2.260684e+00 -1.059709e+02
      vertex   1.100000e+01 2.131875e+00 -1.059298e+02
    endloop
  endfacet
  facet normal 1.437200e-03 3.546045e-01 9.350153e-01
    outer loop
      vertex   1.100000e+01 2.131875e+00 -1.059298e+02
      vertex   6.000000e+00 2.260684e+00 -1.059709e+02
      vertex   6.000000e+00 2.035277e+00 -1.058855e+02
    endloop
  endfacet
  facet normal -1.539683e-03 4.817531e-01 8.763056e-01
    outer loop
      vertex   1.100000e+01 2.131875e+00 -1.059298e+02
      vertex   6.000000e+00 2.035277e+00 -1.058855e+02
      vertex   1.100000e+01 1.912215e+00 -1.058090e+02
    endloop
  endfacet
  facet normal 1.399827e-03 5.680642e-01 8.229831e-01
    outer loop
      vertex   1.100000e+01 1.912215e+00 -1.058090e+02
      vertex   6.000000e+00 2.035277e+00 -1.058855e+02
      vertex   6.000000e+00 1.836877e+00 -1.057485e+02
    endloop
  endfacet
  facet normal -1.492968e-03 6.845463e-01 7.289678e-01
    outer loop
      vertex   1.100000e+01 1.912215e+00 -1.058090e+02
      vertex   6.000000e+00 1.836877e+00 -1.057485e+02
      vertex   1.100000e+01 1.729487e+00 -1.056374e+02
    endloop
  endfacet
  facet normal 1.343771e-03 7.485101e-01 6.631221e-01
    outer loop
      vertex   1.100000e+01 1.729487e+00 -1.056374e+02
      vertex   6.000000e+00 1.836877e+00 -1.057485e+02
      vertex   6.000000e+00 1.677016e+00 -1.055681e+02
    endloop
  endfacet
  facet normal -1.427573e-03 8.443271e-01 5.358262e-01
    outer loop
      vertex   1.100000e+01 1.729487e+00 -1.056374e+02
      vertex   6.000000e+00 1.677016e+00 -1.055681e+02
      vertex   1.100000e+01 1.595173e+00 -1.054258e+02
    endloop
  endfacet
  facet normal 1.269038e-03 8.854553e-01 4.647228e-01
    outer loop
      vertex   1.100000e+01 1.595173e+00 -1.054258e+02
      vertex   6.000000e+00 1.677016e+00 -1.055681e+02
      vertex   6.000000e+00 1.564984e+00 -1.053546e+02
    endloop
  endfacet
  facet normal -1.343504e-03 9.510557e-01 3.090167e-01
    outer loop
      vertex   1.100000e+01 1.595173e+00 -1.054258e+02
      vertex   6.000000e+00 1.564984e+00 -1.053546e+02
      vertex   1.100000e+01 1.517713e+00 -1.051874e+02
    endloop
  endfacet
  facet normal 1.175635e-03 9.709411e-01 2.393155e-01
    outer loop
      vertex   1.100000e+01 1.517713e+00 -1.051874e+02
      vertex   6.000000e+00 1.564984e+00 -1.053546e+02
      vertex   6.000000e+00 1.507291e+00 -1.051205e+02
    endloop
  endfacet
  facet normal -1.240769e-03 9.980260e-01 6.279047e-02
    outer loop
      vertex   1.100000e+01 1.517713e+00 -1.051874e+02
      vertex   6.000000e+00 1.507291e+00 -1.051205e+02
      vertex   1.100000e+01 1.501973e+00 -1.049372e+02
    endloop
  endfacet
  facet normal 1.063570e-03 9.999994e-01 0.000000e+00
    outer loop
      vertex   1.100000e+01 1.501973e+00 -1.049372e+02
      vertex   6.000000e+00 1.507291e+00 -1.051205e+02
      vertex   6.000000e+00 1.507291e+00 -1.048795e+02
    endloop
  endfacet
  facet normal -1.119377e-03 9.822866e-01 -1.873812e-01
    outer loop
      vertex   1.100000e+01 1.501973e+00 -1.049372e+02
      vertex   6.000000e+00 1.507291e+00 -1.048795e+02
      vertex   1.100000e+01 1.548944e+00 -1.046910e+02
    endloop
  endfacet
  facet normal 9.328547e-04 9.709414e-01 -2.393156e-01
    outer loop
      vertex   1.100000e+01 1.548944e+00 -1.046910e+02
      vertex   6.000000e+00 1.507291e+00 -1.048795e+02
      vertex   6.000000e+00 1.564984e+00 -1.046454e+02
    endloop
  endfacet
  facet normal -9.793410e-04 9.048266e-01 -4.257791e-01
    outer loop
      vertex   1.100000e+01 1.548944e+00 -1.046910e+02
      vertex   6.000000e+00 1.564984e+00 -1.046454e+02
      vertex   1.100000e+01 1.655672e+00 -1.044642e+02
    endloop
  endfacet
  facet normal 7.835004e-04 8.854558e-01 -4.647230e-01
    outer loop
      vertex   1.100000e+01 1.655672e+00 -1.044642e+02
      vertex   6.000000e+00 1.564984e+00 -1.046454e+02
      vertex   6.000000e+00 1.677016e+00 -1.044319e+02
    endloop
  endfacet
  facet normal -8.206724e-04 7.705130e-01 -6.374238e-01
    outer loop
      vertex   1.100000e+01 1.655672e+00 -1.044642e+02
      vertex   6.000000e+00 1.677016e+00 -1.044319e+02
      vertex   1.100000e+01 1.815453e+00 -1.042710e+02
    endloop
  endfacet
  facet normal 6.155211e-04 7.485106e-01 -6.631225e-01
    outer loop
      vertex   1.100000e+01 1.815453e+00 -1.042710e+02
      vertex   6.000000e+00 1.677016e+00 -1.044319e+02
      vertex   6.000000e+00 1.836877e+00 -1.042515e+02
    endloop
  endfacet
  facet normal -6.433865e-04 5.877851e-01 -8.090168e-01
    outer loop
      vertex   1.100000e+01 1.815453e+00 -1.042710e+02
      vertex   6.000000e+00 1.836877e+00 -1.042515e+02
      vertex   1.100000e+01 2.018246e+00 -1.041237e+02
    endloop
  endfacet
  facet normal 4.289328e-04 5.680647e-01 -8.229838e-01
    outer loop
      vertex   1.100000e+01 2.018246e+00 -1.041237e+02
      vertex   6.000000e+00 1.836877e+00 -1.042515e+02
      vertex   6.000000e+00 2.035277e+00 -1.041145e+02
    endloop
  endfacet
  facet normal -4.475000e-04 3.681245e-01 -9.297764e-01
    outer loop
      vertex   1.100000e+01 2.018246e+00 -1.041237e+02
      vertex   6.000000e+00 2.035277e+00 -1.041145e+02
      vertex   1.100000e+01 2.251310e+00 -1.040314e+02
    endloop
  endfacet
  facet normal 2.237527e-04 3.546049e-01 -9.350162e-01
    outer loop
      vertex   1.100000e+01 2.251310e+00 -1.040314e+02
      vertex   6.000000e+00 2.035277e+00 -1.041145e+02
      vertex   6.000000e+00 2.260684e+00 -1.040291e+02
    endloop
  endfacet
  facet normal -2.330312e-04 1.253332e-01 -9.921147e-01
    outer loop
      vertex   1.100000e+01 2.251310e+00 -1.040314e+02
      vertex   6.000000e+00 2.260684e+00 -1.040291e+02
      vertex   1.100000e+01 2.500000e+00 -1.040000e+02
    endloop
  endfacet
  facet normal 1.000000e+00 0.000000e+00 -0.000000e+00
    outer loop
      vertex   1.600000e+01 2.739316e+00 -1.040291e+02
      vertex   1.600000e+01 4.000000e+00 -1.035000e+02
      vertex   1.600000e+01 2.500000e+00 -1.040000e+02
    endloop
  endfacet
  facet normal 1.000000e+00 0.000000e+00 -0.000000e+00
    outer loop
      vertex   1.600000e+01 2.500000e+00 -1.040000e+02
      vertex   1.600000e+01 4.000000e+00 -1.035000e+02
      vertex   1.600000e+01 1.000000e+00 -1.035000e+02
    endloop
  endfacet
  facet normal 1.000000e+00 0.000000e+00 0.000000e+00
    outer loop
      vertex   1.600000e+01 2.500000e+00 -1.040000e+02
      vertex   1.600000e+01 1.000000e+00 -1.035000e+02
      vertex   1.600000e+01 2.260684e+00 -1.040291e+02
    endloop
  endfacet
  facet normal 1.000000e+00 0.000000e+00 0.000000e+00
    outer loop
      vertex   1.600000e+01 2.260684e+00 -1.040291e+02
      vertex   1.600000e+01 1.000000e+00 -1.035000e+02
      vertex   1.600000e+01 2.035277e+00 -1.041145e+02
    endloop
  endfacet
  facet normal 1.000000e+00 0.000000e+00 0.000000e+00
    outer loop
      vertex   1.600000e+01 2.035277e+00 -1.041145e+02
      vertex   1.600000e+01 1.000000e+00 -1.035000e+02
      vertex   1.600000e+01 1.836877e+00 -1.042515e+02
    endloop
  endfacet
  facet normal 1.000000e+00 0.000000e+00 0.000000e+00
    outer loop
      vertex   1.600000e+01 1.836877e+00 -1.042515e+02
      vertex   1.600000e+01 1.000000e+00 -1.035000e+02
      vertex   1.600000e+01 1.677016e+00 -1.044319e+02
    endloop
  endfacet
  facet normal 1.000000e+00 0.000000e+00 0.000000e+00
    outer loop
      vertex   1.600000e+01 1.677016e+00 -1.044319e+02
      vertex   1.600000e+01 1.000000e+00 -1.035000e+02
      vertex   1.600000e+01 1.564984e+00 -1.046454e+02
    endloop
  endfacet
  facet normal 1.000000e+00 0.000000e+00 0.000000e+00
    outer loop
      vertex   1.600000e+01 1.564984e+00 -1.046454e+02
      vertex   1.600000e+01 1.000000e+00 -1.035000e+02
      vertex   1.600000e+01 1.507291e+00 -1.048795e+02
    endloop
  endfacet
  facet normal 1.000000e+00 0.000000e+00 0.000000e+00
    outer loop
      vertex   1.600000e+01 1.507291e+00 -1.048795e+02
      vertex   1.600000e+01 1.000000e+00 -1.035000e+02
      vertex   1.600000e+01 1.000000e+00 -1.065000e+02
    endloop
  endfacet
  facet normal 1.000000e+00 0.000000e+00 0.000000e+00
    outer loop
      vertex   1.600000e+01 1.507291e+00 -1.048795e+02
      vertex   1.600000e+01 1.000000e+00 -1.065000e+02
      vertex   1.600000e+01 1.507291e+00 -1.051205e+02
    endloop
  endfacet
  facet normal 1.000000e+00 0.000000e+00 0.000000e+00
    outer loop
      vertex   1.600000e+01 1.507291e+00 -1.051205e+02
      vertex   1.600000e+01 1.000000e+00 -1.065000e+02
      vertex   1.600000e+01 1.564984e+00 -1.053546e+02
    endloop
  endfacet
  facet normal 1.000000e+00 0.000000e+00 0.000000e+00
    outer loop
      vertex   1.600000e+01 1.564984e+00 -1.053546e+02
      vertex   1.600000e+01 1.000000e+00 -1.065000e+02
      vertex   1.600000e+01 1.677016e+00 -1.055681e+02
    endloop
  endfacet
  facet normal 1.000000e+00 0.000000e+00 0.000000e+00
    outer loop
      vertex   1.600000e+01 1.677016e+00 -1.055681e+02
      vertex   1.600000e+01 1.000000e+00 -1.065000e+02
      vertex   1.600000e+01 1.836877e+00 -1.057485e+02
    endloop
  endfacet
  facet normal 1.000000e+00 0.000000e+00 0.000000e+00
    outer loop
      vertex   1.600000e+01 1.836877e+00 -1.057485e+02
      vertex   1.600000e+01 1.000000e+00 -1.065000e+02
      vertex   1.600000e+01 2.035277e+00 -1.058855e+02
    endloop
  endfacet
  facet normal 1.000000e+00 0.000000e+00 0.000000e+00
    outer loop
      vertex   1.600000e+01 2.035277e+00 -1.058855e+02
      vertex   1.600000e+01 1.000000e+00 -1.065000e+02
      vertex   1.600000e+01 2.260684e+00 -1.059709e+02
    endloop
  endfacet
  facet normal 1.000000e+00 0.000000e+00 0.000000e+00
    outer loop
      vertex   1.600000e+01 2.260684e+00 -1.059709e+02
      vertex   1.600000e+01 1.000000e+00 -1.065000e+02
      vertex   1.600000e+01 2.500000e+00 -1.060000e+02
    endloop
  endfacet
  facet normal 1.000000e+00 0.000000e+00 0.000000e+00
    outer loop
      vertex   1.600000e+01 2.500000e+00 -1.060000e+02
      vertex   1.600000e+01 1.000000e+00 -1.065000e+02
      vertex   1.600000e+01 4.000000e+00 -1.065000e+02
    endloop
  endfacet
  facet normal 1.000000e+00 -0.000000e+00 0.000000e+00
    outer loop
      vertex   1.600000e+01 2.500000e+00 -1.060000e+02
      vertex   1.600000e+01 4.000000e+00 -1.065000e+02
      vertex   1.600000e+01 2.739316e+00 -1.059709e+02
    endloop
  endfacet
  facet normal 1.000000e+00 -0.000000e+00 0.000000e+00
    outer loop
      vertex   1.600000e+01 2.739316e+00 -1.059709e+02
      vertex   1.600000e+01 4.000000e+00 -1.065000e+02
      vertex   1.600000e+01 2.964723e+00 -1.058855e+02
    endloop
  endfacet
  facet normal 1.000000e+00 -0.000000e+00 0.000000e+00
    outer loop
      vertex   1.600000e+01 2.964723e+00 -1.058855e+02
      vertex   1.600000e+01 4.000000e+00 -1.065000e+02
      vertex   1.600000e+01 3.163123e+00 -1.057485e+02
    endloop
  endfacet
  facet normal 1.000000e+00 -0.000000e+00 0.000000e+00
    outer loop
      vertex   1.600000e+01 3.163123e+00 -1.057485e+02
      vertex   1.600000e+01 4.000000e+00 -1.065000e+02
      vertex   1.600000e+01 3.322984e+00 -1.055681e+02
    endloop
  endfacet
  facet normal 1.000000e+00 -0.000000e+00 0.000000e+00
    outer loop
      vertex   1.600000e+01 3.322984e+00 -1.055681e+02
      vertex   1.600000e+01 4.000000e+00 -1.065000e+02
      vertex   1.600000e+01 3.435016e+00 -1.053546e+02
    endloop
  endfacet
  facet normal 1.000000e+00 -0.000000e+00 0.000000e+00
    outer loop
      vertex   1.600000e+01 3.435016e+00 -1.053546e+02
      vertex   1.600000e+01 4.000000e+00 -1.065000e+02
      vertex   1.600000e+01 3.492709e+00 -1.051205e+02
    endloop
  endfacet
  facet normal 1.000000e+00 -0.000000e+00 0.000000e+00
    outer loop
      vertex   1.600000e+01 3.492709e+00 -1.051205e+02
      vertex   1.600000e+01 4.000000e+00 -1.065000e+02
      vertex   1.600000e+01 4.000000e+00 -1.035000e+02
    endloop
  endfacet
  facet normal 1.000000e+00 0.000000e+00 0.000000e+00
    outer loop
      vertex   1.600000e+01 3.492709e+00 -1.051205e+02
      vertex   1.600000e+01 4.000000e+00 -1.035000e+02
      vertex   1.600000e+01 3.492709e+00 -1.048795e+02
    endloop
  endfacet
  facet normal 1.000000e+00 0.000000e+00 -0.000000e+00
    outer loop
      vertex   1.600000e+01 3.492709e+00 -1.048795e+02
      vertex   1.600000e+01 4.000000e+00 -1.035000e+02
      vertex   1.600000e+01 3.435016e+00 -1.046454e+02
    endloop
  endfacet
  facet normal 1.000000e+00 0.000000e+00 -0.000000e+00
    outer loop
      vertex   1.600000e+01 3.435016e+00 -1.046454e+02
      vertex   1.600000e+01 4.000000e+00 -1.035000e+02
      vertex   1.600000e+01 3.322984e+00 -1.044319e+02
    endloop
  endfacet
  facet normal 1.000000e+00 0.000000e+00 -0.000000e+00
    outer loop
      vertex   1.600000e+01 3.322984e+00 -1.044319e+02
      vertex   1.600000e+01 4.000000e+00 -1.035000e+02
      vertex   1.600000e+01 3.163123e+00 -1.042515e+02
    endloop
  endfacet
  facet normal 1.000000e+00 0.000000e+00 -0.000000e+00
    outer loop
      vertex   1.600000e+01 3.163123e+00 -1.042515e+02
      vertex   1.600000e+01 4.000000e+00 -1.035000e+02
      vertex   1.600000e+01 2.964723e+00 -1.041145e+02
    endloop
  endfacet
  facet normal 1.000000e+00 0.000000e+00 -0.000000e+00
    outer loop
      vertex   1.600000e+01 2.964723e+00 -1.041145e+02
      vertex   1.600000e+01 4.000000e+00 -1.035000e+02
      vertex   1.600000e+01 2.739316e+00 -1.040291e+02
    endloop
  endfacet
  facet normal 0.000000e+00 -1.000000e+00 0.000000e+00
    outer loop
      vertex   3.872148e+00 1.000000e+00 -1.051682e+02
      vertex   3.850000e+00 1.000000e+00 -1.050000e+02
      vertex   3.000000e+00 1.000000e+00 -1.050000e+02
    endloop
  endfacet
  facet normal 0.000000e+00 -1.000000e+00 0.000000e+00
    outer loop
      vertex   3.000000e+00 1.000000e+00 -1.050000e+02
      vertex   3.850000e+00 1.000000e+00 -1.050000e+02
      vertex   3.872148e+00 1.000000e+00 -1.048318e+02
    endloop
  endfacet
  facet normal 0.000000e+00 -1.000000e+00 0.000000e+00
    outer loop
      vertex   3.000000e+00 1.000000e+00 -1.050000e+02
      vertex   3.872148e+00 1.000000e+00 -1.048318e+02
      vertex   3.028818e+00 1.000000e+00 -1.047074e+02
    endloop
  endfacet
  facet normal 0.000000e+00 -1.000000e+00 0.000000e+00
    outer loop
      vertex   3.028818e+00 1.000000e+00 -1.047074e+02
      vertex   3.872148e+00 1.000000e+00 -1.048318e+02
      vertex   3.937084e+00 1.000000e+00 -1.046750e+02
    endloop
  endfacet
  facet normal 0.000000e+00 -1.000000e+00 0.000000e+00
    outer loop
      vertex   3.028818e+00 1.000000e+00 -1.047074e+02
      vertex   3.937084e+00 1.000000e+00 -1.046750e+02
      vertex   4.040381e+00 1.000000e+00 -1.045404e+02
    endloop
  endfacet
  facet normal 0.000000e+00 -1.000000e+00 0.000000e+00
    outer loop
      vertex   3.028818e+00 1.000000e+00 -1.047074e+02
      vertex   4.040381e+00 1.000000e+00 -1.045404e+02
      vertex   3.114163e+00 1.000000e+00 -1.044260e+02
    endloop
  endfacet
  facet normal 0.000000e+00 -1.000000e+00 0.000000e+00
    outer loop
      vertex   3.114163e+00 1.000000e+00 -1.044260e+02
      vertex   4.040381e+00 1.000000e+00 -1.045404e+02
      vertex   4.175000e+00 1.000000e+00 -1.044371e+02
    endloop
  endfacet
  facet normal 0.000000e+00 -1.000000e+00 0.000000e+00
    outer loop
      vertex   3.114163e+00 1.000000e+00 -1.044260e+02
      vertex   4.175000e+00 1.000000e+00 -1.044371e+02
      vertex   4.331768e+00 1.000000e+00 -1.043721e+02
    endloop
  endfacet
  facet normal 0.000000e+00 -1.000000e+00 0.000000e+00
    outer loop
      vertex   3.114163e+00 1.000000e+00 -1.044260e+02
      vertex   4.331768e+00 1.000000e+00 -1.043721e+02
      vertex   3.252757e+00 1.000000e+00 -1.041667e+02
    endloop
  endfacet
  facet normal 0.000000e+00 -1.000000e+00 0.000000e+00
    outer loop
      vertex   3.252757e+00 1.000000e+00 -1.041667e+02
      vertex   4.331768e+00 1.000000e+00 -1.043721e+02
      vertex   4.500000e+00 1.000000e+00 -1.043500e+02
    endloop
  endfacet
  facet normal 0.000000e+00 -1.000000e+00 0.000000e+00
    outer loop
      vertex   3.252757e+00 1.000000e+00 -1.041667e+02
      vertex   4.500000e+00 1.000000e+00 -1.043500e+02
      vertex   3.439275e+00 1.000000e+00 -1.039394e+02
    endloop
  endfacet
  facet normal 0.000000e+00 -1.000000e+00 0.000000e+00
    outer loop
      vertex   3.439275e+00 1.000000e+00 -1.039394e+02
      vertex   4.500000e+00 1.000000e+00 -1.043500e+02
      vertex   3.666550e+00 1.000000e+00 -1.037529e+02
    endloop
  endfacet
  facet normal 0.000000e+00 -1.000000e+00 0.000000e+00
    outer loop
      vertex   3.666550e+00 1.000000e+00 -1.037529e+02
      vertex   4.500000e+00 1.000000e+00 -1.043500e+02
      vertex   6.000000e+00 1.000000e+00 -1.035000e+02
    endloop
  endfacet
  facet normal 0.000000e+00 -1.000000e+00 0.000000e+00
    outer loop
      vertex   3.666550e+00 1.000000e+00 -1.037529e+02
      vertex   6.000000e+00 1.000000e+00 -1.035000e+02
      vertex   3.925848e+00 1.000000e+00 -1.036142e+02
    endloop
  endfacet
  facet normal 0.000000e+00 -1.000000e+00 0.000000e+00
    outer loop
      vertex   3.925848e+00 1.000000e+00 -1.036142e+02
      vertex   6.000000e+00 1.000000e+00 -1.035000e+02
      vertex   4.499817e+00 1.000000e+00 -1.035000e+02
    endloop
  endfacet
  facet normal 0.000000e+00 -1.000000e+00 0.000000e+00
    outer loop
      vertex   3.925848e+00 1.000000e+00 -1.036142e+02
      vertex   4.499817e+00 1.000000e+00 -1.035000e+02
      vertex   4.207207e+00 1.000000e+00 -1.035289e+02
    endloop
  endfacet
  facet normal 0.000000e+00 -1.000000e+00 0.000000e+00
    outer loop
      vertex   4.500000e+00 1.000000e+00 -1.043500e+02
      vertex   4.668232e+00 1.000000e+00 -1.043721e+02
      vertex   6.000000e+00 1.000000e+00 -1.035000e+02
    endloop
  endfacet
  facet normal 0.000000e+00 -1.000000e+00 0.000000e+00
    outer loop
      vertex   6.000000e+00 1.000000e+00 -1.035000e+02
      vertex   4.668232e+00 1.000000e+00 -1.043721e+02
      vertex   4.825000e+00 1.000000e+00 -1.044371e+02
    endloop
  endfacet
  facet normal 0.000000e+00 -1.000000e+00 0.000000e+00
    outer loop
      vertex   6.000000e+00 1.000000e+00 -1.035000e+02
      vertex   4.825000e+00 1.000000e+00 -1.044371e+02
      vertex   4.959619e+00 1.000000e+00 -1.045404e+02
    endloop
  endfacet
  facet normal 1.490116e-09 -1.000000e+00 -1.490116e-09
    outer loop
      vertex   6.000000e+00 1.000000e+00 -1.035000e+02
      vertex   4.959619e+00 1.000000e+00 -1.045404e+02
      vertex   1.600000e+01 1.000000e+00 -1.035000e+02
    endloop
  endfacet
  facet normal 1.258684e-09 -1.000000e+00 9.658219e-10
    outer loop
      vertex   1.600000e+01 1.000000e+00 -1.035000e+02
      vertex   4.959619e+00 1.000000e+00 -1.045404e+02
      vertex   5.062917e+00 1.000000e+00 -1.046750e+02
    endloop
  endfacet
  facet normal 1.304399e-09 -1.000000e+00 5.402996e-10
    outer loop
      vertex   1.600000e+01 1.000000e+00 -1.035000e+02
      vertex   5.062917e+00 1.000000e+00 -1.046750e+02
      vertex   5.127852e+00 1.000000e+00 -1.048318e+02
    endloop
  endfacet
  facet normal 1.348830e-09 -1.000000e+00 1.775768e-10
    outer loop
      vertex   5.127852e+00 1.000000e+00 -1.048318e+02
      vertex   5.150000e+00 1.000000e+00 -1.050000e+02
      vertex   1.600000e+01 1.000000e+00 -1.035000e+02
    endloop
  endfacet
  facet normal 1.373379e-09 -1.000000e+00 0.000000e+00
    outer loop
      vertex   1.600000e+01 1.000000e+00 -1.035000e+02
      vertex   5.150000e+00 1.000000e+00 -1.050000e+02
      vertex   1.600000e+01 1.000000e+00 -1.065000e+02
    endloop
  endfacet
  facet normal 1.348829e-09 -1.000000e+00 -1.775768e-10
    outer loop
      vertex   1.600000e+01 1.000000e+00 -1.065000e+02
      vertex   5.150000e+00 1.000000e+00 -1.050000e+02
      vertex   5.127852e+00 1.000000e+00 -1.051682e+02
    endloop
  endfacet
  facet normal 1.304398e-09 -1.000000e+00 -5.402994e-10
    outer loop
      vertex   1.600000e+01 1.000000e+00 -1.065000e+02
      vertex   5.127852e+00 1.000000e+00 -1.051682e+02
      vertex   5.062917e+00 1.000000e+00 -1.053250e+02
    endloop
  endfacet
  facet normal 1.258683e-09 -1.000000e+00 -9.658215e-10
    outer loop
      vertex   5.062917e+00 1.000000e+00 -1.053250e+02
      vertex   4.959619e+00 1.000000e+00 -1.054596e+02
      vertex   1.600000e+01 1.000000e+00 -1.065000e+02
    endloop
  endfacet
  facet normal 1.490117e-09 -1.000000e+00 1.490117e-09
    outer loop
      vertex   1.600000e+01 1.000000e+00 -1.065000e+02
      vertex   4.959619e+00 1.000000e+00 -1.054596e+02
      vertex   6.000000e+00 1.000000e+00 -1.065000e+02
    endloop
  endfacet
  facet normal 0.000000e+00 -1.000000e+00 0.000000e+00
    outer loop
      vertex   6.000000e+00 1.000000e+00 -1.065000e+02
      vertex   4.959619e+00 1.000000e+00 -1.054596e+02
      vertex   4.825000e+00 1.000000e+00 -1.055629e+02
    endloop
  endfacet
  facet normal 0.000000e+00 -1.000000e+00 0.000000e+00
    outer loop
      vertex   6.000000e+00 1.000000e+00 -1.065000e+02
      vertex   4.825000e+00 1.000000e+00 -1.055629e+02
      vertex   4.668232e+00 1.000000e+00 -1.056278e+02
    endloop
  endfacet
  facet normal 0.000000e+00 -1.000000e+00 -0.000000e+00
    outer loop
      vertex   4.668232e+00 1.000000e+00 -1.056278e+02
      vertex   4.500000e+00 1.000000e+00 -1.056500e+02
      vertex   6.000000e+00 1.000000e+00 -1.065000e+02
    endloop
  endfacet
  facet normal 0.000000e+00 -1.000000e+00 0.000000e+00
    outer loop
      vertex   6.000000e+00 1.000000e+00 -1.065000e+02
      vertex   4.500000e+00 1.000000e+00 -1.056500e+02
      vertex   3.666550e+00 1.000000e+00 -1.062471e+02
    endloop
  endfacet
  facet normal 0.000000e+00 -1.000000e+00 0.000000e+00
    outer loop
      vertex   6.000000e+00 1.000000e+00 -1.065000e+02
      vertex   3.666550e+00 1.000000e+00 -1.062471e+02
      vertex   3.925848e+00 1.000000e+00 -1.063858e+02
    endloop
  endfacet
  facet normal 0.000000e+00 -1.000000e+00 -0.000000e+00
    outer loop
      vertex   4.331768e+00 1.000000e+00 -1.056278e+02
      vertex   3.252757e+00 1.000000e+00 -1.058333e+02
      vertex   4.500000e+00 1.000000e+00 -1.056500e+02
    endloop
  endfacet
  facet normal 0.000000e+00 -1.000000e+00 0.000000e+00
    outer loop
      vertex   4.500000e+00 1.000000e+00 -1.056500e+02
      vertex   3.252757e+00 1.000000e+00 -1.058333e+02
      vertex   3.439275e+00 1.000000e+00 -1.060606e+02
    endloop
  endfacet
  facet normal 0.000000e+00 -1.000000e+00 0.000000e+00
    outer loop
      vertex   4.500000e+00 1.000000e+00 -1.056500e+02
      vertex   3.439275e+00 1.000000e+00 -1.060606e+02
      vertex   3.666550e+00 1.000000e+00 -1.062471e+02
    endloop
  endfacet
  facet normal 0.000000e+00 -1.000000e+00 0.000000e+00
    outer loop
      vertex   3.252757e+00 1.000000e+00 -1.058333e+02
      vertex   4.331768e+00 1.000000e+00 -1.056278e+02
      vertex   3.114163e+00 1.000000e+00 -1.055740e+02
    endloop
  endfacet
  facet normal 0.000000e+00 -1.000000e+00 0.000000e+00
    outer loop
      vertex   3.114163e+00 1.000000e+00 -1.055740e+02
      vertex   4.331768e+00 1.000000e+00 -1.056278e+02
      vertex   4.175000e+00 1.000000e+00 -1.055629e+02
    endloop
  endfacet
  facet normal 0.000000e+00 -1.000000e+00 0.000000e+00
    outer loop
      vertex   3.114163e+00 1.000000e+00 -1.055740e+02
      vertex   4.175000e+00 1.000000e+00 -1.055629e+02
      vertex   4.040381e+00 1.000000e+00 -1.054596e+02
    endloop
  endfacet
  facet normal 0.000000e+00 -1.000000e+00 0.000000e+00
    outer loop
      vertex   3.114163e+00 1.000000e+00 -1.055740e+02
      vertex   4.040381e+00 1.000000e+00 -1.054596e+02
      vertex   3.028818e+00 1.000000e+00 -1.052926e+02
    endloop
  endfacet
  facet normal 0.000000e+00 -1.000000e+00 0.000000e+00
    outer loop
      vertex   3.028818e+00 1.000000e+00 -1.052926e+02
      vertex   4.040381e+00 1.000000e+00 -1.054596e+02
      vertex   3.937084e+00 1.000000e+00 -1.053250e+02
    endloop
  endfacet
  facet normal 0.000000e+00 -1.000000e+00 0.000000e+00
    outer loop
      vertex   3.028818e+00 1.000000e+00 -1.052926e+02
      vertex   3.937084e+00 1.000000e+00 -1.053250e+02
      vertex   3.872148e+00 1.000000e+00 -1.051682e+02
    endloop
  endfacet
  facet normal 0.000000e+00 -1.000000e+00 0.000000e+00
    outer loop
      vertex   3.028818e+00 1.000000e+00 -1.052926e+02
      vertex   3.872148e+00 1.000000e+00 -1.051682e+02
      vertex   3.000000e+00 1.000000e+00 -1.050000e+02
    endloop
  endfacet
  facet normal 0.000000e+00 -1.000000e+00 0.000000e+00
    outer loop
      vertex   4.207207e+00 1.000000e+00 -1.064711e+02
      vertex   4.499817e+00 1.000000e+00 -1.065000e+02
      vertex   3.925848e+00 1.000000e+00 -1.063858e+02
    endloop
  endfacet
  facet normal 0.000000e+00 -1.000000e+00 0.000000e+00
    outer loop
      vertex   3.925848e+00 1.000000e+00 -1.063858e+02
      vertex   4.499817e+00 1.000000e+00 -1.065000e+02
      vertex   6.000000e+00 1.000000e+00 -1.065000e+02
    endloop
  endfacet
  facet normal 0.000000e+00 1.000000e+00 0.000000e+00
    outer loop
      vertex   3.872148e+00 4.000000e+00 -1.048318e+02
      vertex   3.850000e+00 4.000000e+00 -1.050000e+02
      vertex   3.000000e+00 4.000000e+00 -1.050000e+02
    endloop
  endfacet
  facet normal -0.000000e+00 1.000000e+00 0.000000e+00
    outer loop
      vertex   3.000000e+00 4.000000e+00 -1.050000e+02
      vertex   3.850000e+00 4.000000e+00 -1.050000e+02
      vertex   3.872148e+00 4.000000e+00 -1.051682e+02
    endloop
  endfacet
  facet normal 0.000000e+00 1.000000e+00 0.000000e+00
    outer loop
      vertex   3.000000e+00 4.000000e+00 -1.050000e+02
      vertex   3.872148e+00 4.000000e+00 -1.051682e+02
      vertex   3.028818e+00 4.000000e+00 -1.052926e+02
    endloop
  endfacet
  facet normal -0.000000e+00 1.000000e+00 0.000000e+00
    outer loop
      vertex   3.028818e+00 4.000000e+00 -1.052926e+02
      vertex   3.872148e+00 4.000000e+00 -1.051682e+02
      vertex   3.937084e+00 4.000000e+00 -1.053250e+02
    endloop
  endfacet
  facet normal 0.000000e+00 1.000000e+00 0.000000e+00
    outer loop
      vertex   3.028818e+00 4.000000e+00 -1.052926e+02
      vertex   3.937084e+00 4.000000e+00 -1.053250e+02
      vertex   4.040381e+00 4.000000e+00 -1.054596e+02
    endloop
  endfacet
  facet normal 0.000000e+00 1.000000e+00 0.000000e+00
    outer loop
      vertex   3.028818e+00 4.000000e+00 -1.052926e+02
      vertex   4.040381e+00 4.000000e+00 -1.054596e+02
      vertex   3.114163e+00 4.000000e+00 -1.055740e+02
    endloop
  endfacet
  facet normal 0.000000e+00 1.000000e+00 0.000000e+00
    outer loop
      vertex   3.114163e+00 4.000000e+00 -1.055740e+02
      vertex   4.040381e+00 4.000000e+00 -1.054596e+02
      vertex   4.175000e+00 4.000000e+00 -1.055629e+02
    endloop
  endfacet
  facet normal -0.000000e+00 1.000000e+00 0.000000e+00
    outer loop
      vertex   3.114163e+00 4.000000e+00 -1.055740e+02
      vertex   4.175000e+00 4.000000e+00 -1.055629e+02
      vertex   4.331768e+00 4.000000e+00 -1.056278e+02
    endloop
  endfacet
  facet normal 0.000000e+00 1.000000e+00 0.000000e+00
    outer loop
      vertex   3.114163e+00 4.000000e+00 -1.055740e+02
      vertex   4.331768e+00 4.000000e+00 -1.056278e+02
      vertex   3.252757e+00 4.000000e+00 -1.058333e+02
    endloop
  endfacet
  facet normal 0.000000e+00 1.000000e+00 0.000000e+00
    outer loop
      vertex   3.252757e+00 4.000000e+00 -1.058333e+02
      vertex   4.331768e+00 4.000000e+00 -1.056278e+02
      vertex   4.500000e+00 4.000000e+00 -1.056500e+02
    endloop
  endfacet
  facet normal -0.000000e+00 1.000000e+00 0.000000e+00
    outer loop
      vertex   3.252757e+00 4.000000e+00 -1.058333e+02
      vertex   4.500000e+00 4.000000e+00 -1.056500e+02
      vertex   3.439275e+00 4.000000e+00 -1.060606e+02
    endloop
  endfacet
  facet normal -0.000000e+00 1.000000e+00 0.000000e+00
    outer loop
      vertex   3.439275e+00 4.000000e+00 -1.060606e+02
      vertex   4.500000e+00 4.000000e+00 -1.056500e+02
      vertex   3.666550e+00 4.000000e+00 -1.062471e+02
    endloop
  endfacet
  facet normal -0.000000e+00 1.000000e+00 0.000000e+00
    outer loop
      vertex   3.666550e+00 4.000000e+00 -1.062471e+02
      vertex   4.500000e+00 4.000000e+00 -1.056500e+02
      vertex   6.000000e+00 4.000000e+00 -1.065000e+02
    endloop
  endfacet
  facet normal 0.000000e+00 1.000000e+00 0.000000e+00
    outer loop
      vertex   3.666550e+00 4.000000e+00 -1.062471e+02
      vertex   6.000000e+00 4.000000e+00 -1.065000e+02
      vertex   3.925848e+00 4.000000e+00 -1.063858e+02
    endloop
  endfacet
  facet normal 0.000000e+00 1.000000e+00 0.000000e+00
    outer loop
      vertex   3.925848e+00 4.000000e+00 -1.063858e+02
      vertex   6.000000e+00 4.000000e+00 -1.065000e+02
      vertex   4.499817e+00 4.000000e+00 -1.065000e+02
    endloop
  endfacet
  facet normal 0.000000e+00 1.000000e+00 0.000000e+00
    outer loop
      vertex   3.925848e+00 4.000000e+00 -1.063858e+02
      vertex   4.499817e+00 4.000000e+00 -1.065000e+02
      vertex   4.207207e+00 4.000000e+00 -1.064711e+02
    endloop
  endfacet
  facet normal -0.000000e+00 1.000000e+00 0.000000e+00
    outer loop
      vertex   4.500000e+00 4.000000e+00 -1.056500e+02
      vertex   4.668232e+00 4.000000e+00 -1.056278e+02
      vertex   6.000000e+00 4.000000e+00 -1.065000e+02
    endloop
  endfacet
  facet normal 0.000000e+00 1.000000e+00 0.000000e+00
    outer loop
      vertex   6.000000e+00 4.000000e+00 -1.065000e+02
      vertex   4.668232e+00 4.000000e+00 -1.056278e+02
      vertex   4.825000e+00 4.000000e+00 -1.055629e+02
    endloop
  endfacet
  facet normal 0.000000e+00 1.000000e+00 0.000000e+00
    outer loop
      vertex   6.000000e+00 4.000000e+00 -1.065000e+02
      vertex   4.825000e+00 4.000000e+00 -1.055629e+02
      vertex   4.959619e+00 4.000000e+00 -1.054596e+02
    endloop
  endfacet
  facet normal -5.960467e-09 1.000000e+00 -5.960467e-09
    outer loop
      vertex   6.000000e+00 4.000000e+00 -1.065000e+02
      vertex   4.959619e+00 4.000000e+00 -1.054596e+02
      vertex   1.600000e+01 4.000000e+00 -1.065000e+02
    endloop
  endfacet
  facet normal -5.034731e-09 1.000000e+00 3.863285e-09
    outer loop
      vertex   1.600000e+01 4.000000e+00 -1.065000e+02
      vertex   4.959619e+00 4.000000e+00 -1.054596e+02
      vertex   5.062917e+00 4.000000e+00 -1.053250e+02
    endloop
  endfacet
  facet normal -5.217591e-09 1.000000e+00 2.161197e-09
    outer loop
      vertex   1.600000e+01 4.000000e+00 -1.065000e+02
      vertex   5.062917e+00 4.000000e+00 -1.053250e+02
      vertex   5.127852e+00 4.000000e+00 -1.051682e+02
    endloop
  endfacet
  facet normal -5.395317e-09 1.000000e+00 7.103069e-10
    outer loop
      vertex   5.127852e+00 4.000000e+00 -1.051682e+02
      vertex   5.150000e+00 4.000000e+00 -1.050000e+02
      vertex   1.600000e+01 4.000000e+00 -1.065000e+02
    endloop
  endfacet
  facet normal -5.493516e-09 1.000000e+00 0.000000e+00
    outer loop
      vertex   1.600000e+01 4.000000e+00 -1.065000e+02
      vertex   5.150000e+00 4.000000e+00 -1.050000e+02
      vertex   1.600000e+01 4.000000e+00 -1.035000e+02
    endloop
  endfacet
  facet normal -5.395317e-09 1.000000e+00 -7.103070e-10
    outer loop
      vertex   1.600000e+01 4.000000e+00 -1.035000e+02
      vertex   5.150000e+00 4.000000e+00 -1.050000e+02
      vertex   5.127852e+00 4.000000e+00 -1.048318e+02
    endloop
  endfacet
  facet normal -5.217593e-09 1.000000e+00 -2.161198e-09
    outer loop
      vertex   1.600000e+01 4.000000e+00 -1.035000e+02
      vertex   5.127852e+00 4.000000e+00 -1.048318e+02
      vertex   5.062917e+00 4.000000e+00 -1.046750e+02
    endloop
  endfacet
  facet normal -5.034734e-09 1.000000e+00 -3.863287e-09
    outer loop
      vertex   5.062917e+00 4.000000e+00 -1.046750e+02
      vertex   4.959619e+00 4.000000e+00 -1.045404e+02
      vertex   1.600000e+01 4.000000e+00 -1.035000e+02
    endloop
  endfacet
  facet normal -5.960463e-09 1.000000e+00 5.960463e-09
    outer loop
      vertex   1.600000e+01 4.000000e+00 -1.035000e+02
      vertex   4.959619e+00 4.000000e+00 -1.045404e+02
      vertex   6.000000e+00 4.000000e+00 -1.035000e+02
    endloop
  endfacet
  facet normal 0.000000e+00 1.000000e+00 0.000000e+00
    outer loop
      vertex   6.000000e+00 4.000000e+00 -1.035000e+02
      vertex   4.959619e+00 4.000000e+00 -1.045404e+02
      vertex   4.825000e+00 4.000000e+00 -1.044371e+02
    endloop
  endfacet
  facet normal 0.000000e+00 1.000000e+00 0.000000e+00
    outer loop
      vertex   6.000000e+00 4.000000e+00 -1.035000e+02
      vertex   4.825000e+00 4.000000e+00 -1.044371e+02
      vertex   4.668232e+00 4.000000e+00 -1.043721e+02
    endloop
  endfacet
  facet normal 0.000000e+00 1.000000e+00 -0.000000e+00
    outer loop
      vertex   4.668232e+00 4.000000e+00 -1.043721e+02
      vertex   4.500000e+00 4.000000e+00 -1.043500e+02
      vertex   6.000000e+00 4.000000e+00 -1.035000e+02
    endloop
  endfacet
  facet normal 0.000000e+00 1.000000e+00 0.000000e+00
    outer loop
      vertex   6.000000e+00 4.000000e+00 -1.035000e+02
      vertex   4.500000e+00 4.000000e+00 -1.043500e+02
      vertex   3.666550e+00 4.000000e+00 -1.037529e+02
    endloop
  endfacet
  facet normal 0.000000e+00 1.000000e+00 0.000000e+00
    outer loop
      vertex   6.000000e+00 4.000000e+00 -1.035000e+02
      vertex   3.666550e+00 4.000000e+00 -1.037529e+02
      vertex   3.925848e+00 4.000000e+00 -1.036142e+02
    endloop
  endfacet
  facet normal 0.000000e+00 1.000000e+00 -0.000000e+00
    outer loop
      vertex   4.331768e+00 4.000000e+00 -1.043721e+02
      vertex   3.252757e+00 4.000000e+00 -1.041667e+02
      vertex   4.500000e+00 4.000000e+00 -1.043500e+02
    endloop
  endfacet
  facet normal 0.000000e+00 1.000000e+00 0.000000e+00
    outer loop
      vertex   4.500000e+00 4.000000e+00 -1.043500e+02
      vertex   3.252757e+00 4.000000e+00 -1.041667e+02
      vertex   3.439275e+00 4.000000e+00 -1.039394e+02
    endloop
  endfacet
  facet normal 0.000000e+00 1.000000e+00 0.000000e+00
    outer loop
      vertex   4.500000e+00 4.000000e+00 -1.043500e+02
      vertex   3.439275e+00 4.000000e+00 -1.039394e+02
      vertex   3.666550e+00 4.000000e+00 -1.037529e+02
    endloop
  endfacet
  facet normal 0.000000e+00 1.000000e+00 0.000000e+00
    outer loop
      vertex   3.252757e+00 4.000000e+00 -1.041667e+02
      vertex   4.331768e+00 4.000000e+00 -1.043721e+02
      vertex   3.114163e+00 4.000000e+00 -1.044260e+02
    endloop
  endfacet
  facet normal -0.000000e+00 1.000000e+00 0.000000e+00
    outer loop
      vertex   3.114163e+00 4.000000e+00 -1.044260e+02
      vertex   4.331768e+00 4.000000e+00 -1.043721e+02
      vertex   4.175000e+00 4.000000e+00 -1.044371e+02
    endloop
  endfacet
  facet normal 0.000000e+00 1.000000e+00 0.000000e+00
    outer loop
      vertex   3.114163e+00 4.000000e+00 -1.044260e+02
      vertex   4.175000e+00 4.000000e+00 -1.044371e+02
      vertex   4.040381e+00 4.000000e+00 -1.045404e+02
    endloop
  endfacet
  facet normal 0.000000e+00 1.000000e+00 0.000000e+00
    outer loop
      vertex   3.114163e+00 4.000000e+00 -1.044260e+02
      vertex   4.040381e+00 4.000000e+00 -1.045404e+02
      vertex   3.028818e+00 4.000000e+00 -1.047074e+02
    endloop
  endfacet
  facet normal 0.000000e+00 1.000000e+00 0.000000e+00
    outer loop
      vertex   3.028818e+00 4.000000e+00 -1.047074e+02
      vertex   4.040381e+00 4.000000e+00 -1.045404e+02
      vertex   3.937084e+00 4.000000e+00 -1.046750e+02
    endloop
  endfacet
  facet normal -0.000000e+00 1.000000e+00 0.000000e+00
    outer loop
      vertex   3.028818e+00 4.000000e+00 -1.047074e+02
      vertex   3.937084e+00 4.000000e+00 -1.046750e+02
      vertex   3.872148e+00 4.000000e+00 -1.048318e+02
    endloop
  endfacet
  facet normal 0.000000e+00 1.000000e+00 0.000000e+00
    outer loop
      vertex   3.028818e+00 4.000000e+00 -1.047074e+02
      vertex   3.872148e+00 4.000000e+00 -1.048318e+02
      vertex   3.000000e+00 4.000000e+00 -1.050000e+02
    endloop
  endfacet
  facet normal -0.000000e+00 1.000000e+00 0.000000e+00
    outer loop
      vertex   4.207207e+00 4.000000e+00 -1.035289e+02
      vertex   4.499817e+00 4.000000e+00 -1.035000e+02
      vertex   3.925848e+00 4.000000e+00 -1.036142e+02
    endloop
  endfacet
  facet normal 0.000000e+00 1.000000e+00 0.000000e+00
    outer loop
      vertex   3.925848e+00 4.000000e+00 -1.036142e+02
      vertex   4.499817e+00 4.000000e+00 -1.035000e+02
      vertex   6.000000e+00 4.000000e+00 -1.035000e+02
    endloop
  endfacet
  facet normal -9.813103e-02 0.000000e+00 9.951735e-01
    outer loop
      vertex   4.499817e+00 1.000000e+00 -1.035000e+02
      vertex   4.499817e+00 4.000000e+00 -1.035000e+02
      vertex   4.207207e+00 1.000000e+00 -1.035289e+02
    endloop
  endfacet
  facet normal -9.813103e-02 0.000000e+00 9.951735e-01
    outer loop
      vertex   4.207207e+00 1.000000e+00 -1.035289e+02
      vertex   4.499817e+00 4.000000e+00 -1.035000e+02
      vertex   4.207207e+00 4.000000e+00 -1.035289e+02
    endloop
  endfacet
  facet normal -2.903796e-01 0.000000e+00 9.569115e-01
    outer loop
      vertex   4.207207e+00 1.000000e+00 -1.035289e+02
      vertex   4.207207e+00 4.000000e+00 -1.035289e+02
      vertex   3.925848e+00 1.000000e+00 -1.036142e+02
    endloop
  endfacet
  facet normal -2.903796e-01 0.000000e+00 9.569115e-01
    outer loop
      vertex   3.925848e+00 1.000000e+00 -1.036142e+02
      vertex   4.207207e+00 4.000000e+00 -1.035289e+02
      vertex   3.925848e+00 4.000000e+00 -1.036142e+02
    endloop
  endfacet
  facet normal -4.714707e-01 0.000000e+00 8.818817e-01
    outer loop
      vertex   3.925848e+00 1.000000e+00 -1.036142e+02
      vertex   3.925848e+00 4.000000e+00 -1.036142e+02
      vertex   3.666550e+00 1.000000e+00 -1.037529e+02
    endloop
  endfacet
  facet normal -4.714707e-01 0.000000e+00 8.818817e-01
    outer loop
      vertex   3.666550e+00 1.000000e+00 -1.037529e+02
      vertex   3.925848e+00 4.000000e+00 -1.036142e+02
      vertex   3.666550e+00 4.000000e+00 -1.037529e+02
    endloop
  endfacet
  facet normal -6.344464e-01 0.000000e+00 7.729669e-01
    outer loop
      vertex   3.666550e+00 1.000000e+00 -1.037529e+02
      vertex   3.666550e+00 4.000000e+00 -1.037529e+02
      vertex   3.439275e+00 1.000000e+00 -1.039394e+02
    endloop
  endfacet
  facet normal -6.344464e-01 9.391693e-17 7.729669e-01
    outer loop
      vertex   3.439275e+00 1.000000e+00 -1.039394e+02
      vertex   3.666550e+00 4.000000e+00 -1.037529e+02
      vertex   3.439275e+00 4.000000e+00 -1.039394e+02
    endloop
  endfacet
  facet normal -7.730443e-01 1.144335e-16 6.343520e-01
    outer loop
      vertex   3.439275e+00 1.000000e+00 -1.039394e+02
      vertex   3.439275e+00 4.000000e+00 -1.039394e+02
      vertex   3.252757e+00 1.000000e+00 -1.041667e+02
    endloop
  endfacet
  facet normal -7.730443e-01 0.000000e+00 6.343520e-01
    outer loop
      vertex   3.252757e+00 1.000000e+00 -1.041667e+02
      vertex   3.439275e+00 4.000000e+00 -1.039394e+02
      vertex   3.252757e+00 4.000000e+00 -1.041667e+02
    endloop
  endfacet
  facet normal -8.819392e-01 0.000000e+00 4.713631e-01
    outer loop
      vertex   3.252757e+00 1.000000e+00 -1.041667e+02
      vertex   3.252757e+00 4.000000e+00 -1.041667e+02
      vertex   3.114163e+00 1.000000e+00 -1.044260e+02
    endloop
  endfacet
  facet normal -8.819392e-01 0.000000e+00 4.713631e-01
    outer loop
      vertex   3.114163e+00 1.000000e+00 -1.044260e+02
      vertex   3.252757e+00 4.000000e+00 -1.041667e+02
      vertex   3.114163e+00 4.000000e+00 -1.044260e+02
    endloop
  endfacet
  facet normal -9.569470e-01 0.000000e+00 2.902628e-01
    outer loop
      vertex   3.114163e+00 1.000000e+00 -1.044260e+02
      vertex   3.114163e+00 4.000000e+00 -1.044260e+02
      vertex   3.028818e+00 1.000000e+00 -1.047074e+02
    endloop
  endfacet
  facet normal -9.569470e-01 0.000000e+00 2.902628e-01
    outer loop
      vertex   3.028818e+00 1.000000e+00 -1.047074e+02
      vertex   3.114163e+00 4.000000e+00 -1.044260e+02
      vertex   3.028818e+00 4.000000e+00 -1.047074e+02
    endloop
  endfacet
  facet normal -9.951855e-01 0.000000e+00 9.800955e-02
    outer loop
      vertex   3.028818e+00 1.000000e+00 -1.047074e+02
      vertex   3.028818e+00 4.000000e+00 -1.047074e+02
      vertex   3.000000e+00 1.000000e+00 -1.050000e+02
    endloop
  endfacet
  facet normal -9.951855e-01 0.000000e+00 9.800955e-02
    outer loop
      vertex   3.000000e+00 1.000000e+00 -1.050000e+02
      vertex   3.028818e+00 4.000000e+00 -1.047074e+02
      vertex   3.000000e+00 4.000000e+00 -1.050000e+02
    endloop
  endfacet
  facet normal -9.951855e-01 0.000000e+00 -9.800955e-02
    outer loop
      vertex   3.000000e+00 1.000000e+00 -1.050000e+02
      vertex   3.000000e+00 4.000000e+00 -1.050000e+02
      vertex   3.028818e+00 1.000000e+00 -1.052926e+02
    endloop
  endfacet
  facet normal -9.951855e-01 0.000000e+00 -9.800955e-02
    outer loop
      vertex   3.028818e+00 1.000000e+00 -1.052926e+02
      vertex   3.000000e+00 4.000000e+00 -1.050000e+02
      vertex   3.028818e+00 4.000000e+00 -1.052926e+02
    endloop
  endfacet
  facet normal -9.569470e-01 0.000000e+00 -2.902628e-01
    outer loop
      vertex   3.028818e+00 1.000000e+00 -1.052926e+02
      vertex   3.028818e+00 4.000000e+00 -1.052926e+02
      vertex   3.114163e+00 1.000000e+00 -1.055740e+02
    endloop
  endfacet
  facet normal -9.569470e-01 0.000000e+00 -2.902628e-01
    outer loop
      vertex   3.114163e+00 1.000000e+00 -1.055740e+02
      vertex   3.028818e+00 4.000000e+00 -1.052926e+02
      vertex   3.114163e+00 4.000000e+00 -1.055740e+02
    endloop
  endfacet
  facet normal -8.819392e-01 0.000000e+00 -4.713631e-01
    outer loop
      vertex   3.114163e+00 1.000000e+00 -1.055740e+02
      vertex   3.114163e+00 4.000000e+00 -1.055740e+02
      vertex   3.252757e+00 1.000000e+00 -1.058333e+02
    endloop
  endfacet
  facet normal -8.819392e-01 0.000000e+00 -4.713631e-01
    outer loop
      vertex   3.252757e+00 1.000000e+00 -1.058333e+02
      vertex   3.114163e+00 4.000000e+00 -1.055740e+02
      vertex   3.252757e+00 4.000000e+00 -1.058333e+02
    endloop
  endfacet
  facet normal -7.730443e-01 0.000000e+00 -6.343520e-01
    outer loop
      vertex   3.252757e+00 1.000000e+00 -1.058333e+02
      vertex   3.252757e+00 4.000000e+00 -1.058333e+02
      vertex   3.439275e+00 1.000000e+00 -1.060606e+02
    endloop
  endfacet
  facet normal -7.730443e-01 0.000000e+00 -6.343520e-01
    outer loop
      vertex   3.439275e+00 1.000000e+00 -1.060606e+02
      vertex   3.252757e+00 4.000000e+00 -1.058333e+02
      vertex   3.439275e+00 4.000000e+00 -1.060606e+02
    endloop
  endfacet
  facet normal -6.344464e-01 0.000000e+00 -7.729669e-01
    outer loop
      vertex   3.439275e+00 1.000000e+00 -1.060606e+02
      vertex   3.439275e+00 4.000000e+00 -1.060606e+02
      vertex   3.666550e+00 1.000000e+00 -1.062471e+02
    endloop
  endfacet
  facet normal -6.344464e-01 0.000000e+00 -7.729669e-01
    outer loop
      vertex   3.666550e+00 1.000000e+00 -1.062471e+02
      vertex   3.439275e+00 4.000000e+00 -1.060606e+02
      vertex   3.666550e+00 4.000000e+00 -1.062471e+02
    endloop
  endfacet
  facet normal -4.714707e-01 0.000000e+00 -8.818817e-01
    outer loop
      vertex   3.666550e+00 1.000000e+00 -1.062471e+02
      vertex   3.666550e+00 4.000000e+00 -1.062471e+02
      vertex   3.925848e+00 1.000000e+00 -1.063858e+02
    endloop
  endfacet
  facet normal -4.714707e-01 -6.979169e-17 -8.818817e-01
    outer loop
      vertex   3.925848e+00 1.000000e+00 -1.063858e+02
      vertex   3.666550e+00 4.000000e+00 -1.062471e+02
      vertex   3.925848e+00 4.000000e+00 -1.063858e+02
    endloop
  endfacet
  facet normal -2.903796e-01 -4.298481e-17 -9.569115e-01
    outer loop
      vertex   3.925848e+00 1.000000e+00 -1.063858e+02
      vertex   3.925848e+00 4.000000e+00 -1.063858e+02
      vertex   4.207207e+00 1.000000e+00 -1.064711e+02
    endloop
  endfacet
  facet normal -2.903796e-01 -8.596963e-17 -9.569115e-01
    outer loop
      vertex   4.207207e+00 1.000000e+00 -1.064711e+02
      vertex   3.925848e+00 4.000000e+00 -1.063858e+02
      vertex   4.207207e+00 4.000000e+00 -1.064711e+02
    endloop
  endfacet
  facet normal -9.813103e-02 -2.905262e-17 -9.951735e-01
    outer loop
      vertex   4.207207e+00 1.000000e+00 -1.064711e+02
      vertex   4.207207e+00 4.000000e+00 -1.064711e+02
      vertex   4.499817e+00 1.000000e+00 -1.065000e+02
    endloop
  endfacet
  facet normal -9.813103e-02 0.000000e+00 -9.951735e-01
    outer loop
      vertex   4.499817e+00 1.000000e+00 -1.065000e+02
      vertex   4.207207e+00 4.000000e+00 -1.064711e+02
      vertex   4.499817e+00 4.000000e+00 -1.065000e+02
    endloop
  endfacet
  facet normal 1.489934e-08 0.000000e+00 -1.000000e+00
    outer loop
      vertex   4.499817e+00 1.000000e+00 -1.065000e+02
      vertex   4.499817e+00 4.000000e+00 -1.065000e+02
      vertex   6.000000e+00 1.000000e+00 -1.065000e+02
    endloop
  endfacet
  facet normal 1.489934e-08 0.000000e+00 -1.000000e+00
    outer loop
      vertex   6.000000e+00 1.000000e+00 -1.065000e+02
      vertex   4.499817e+00 4.000000e+00 -1.065000e+02
      vertex   6.000000e+00 4.000000e+00 -1.065000e+02
    endloop
  endfacet
  facet normal -3.788620e-07 0.000000e+00 -1.000000e+00
    outer loop
      vertex   6.000000e+00 1.000000e+00 -1.065000e+02
      vertex   6.000000e+00 4.000000e+00 -1.065000e+02
      vertex   1.600000e+01 1.000000e+00 -1.065000e+02
    endloop
  endfacet
  facet normal -3.788620e-07 0.000000e+00 -1.000000e+00
    outer loop
      vertex   1.600000e+01 1.000000e+00 -1.065000e+02
      vertex   6.000000e+00 4.000000e+00 -1.065000e+02
      vertex   1.600000e+01 4.000000e+00 -1.065000e+02
    endloop
  endfacet
  facet normal 1.489933e-08 0.000000e+00 1.000000e+00
    outer loop
      vertex   4.499817e+00 4.000000e+00 -1.035000e+02
      vertex   6.000000e+00 1.000000e+00 -1.035000e+02
      vertex   6.000000e+00 4.000000e+00 -1.035000e+02
    endloop
  endfacet
  facet normal 3.676862e-07 0.000000e+00 1.000000e+00
    outer loop
      vertex   6.000000e+00 4.000000e+00 -1.035000e+02
      vertex   6.000000e+00 1.000000e+00 -1.035000e+02
      vertex   1.600000e+01 1.000000e+00 -1.035000e+02
    endloop
  endfacet
  facet normal 3.676862e-07 0.000000e+00 1.000000e+00
    outer loop
      vertex   6.000000e+00 4.000000e+00 -1.035000e+02
      vertex   1.600000e+01 1.000000e+00 -1.035000e+02
      vertex   1.600000e+01 4.000000e+00 -1.035000e+02
    endloop
  endfacet
  facet normal 1.489933e-08 0.000000e+00 1.000000e+00
    outer loop
      vertex   4.499817e+00 4.000000e+00 -1.035000e+02
      vertex   4.499817e+00 1.000000e+00 -1.035000e+02
      vertex   6.000000e+00 1.000000e+00 -1.035000e+02
    endloop
  endfacet
  facet normal 9.914449e-01 -0.000000e+00 1.305262e-01
    outer loop
      vertex   3.872148e+00 1.000000e+00 -1.051682e+02
      vertex   3.872148e+00 4.000000e+00 -1.051682e+02
      vertex   3.850000e+00 1.000000e+00 -1.050000e+02
    endloop
  endfacet
  facet normal 9.914449e-01 -0.000000e+00 1.305262e-01
    outer loop
      vertex   3.850000e+00 1.000000e+00 -1.050000e+02
      vertex   3.872148e+00 4.000000e+00 -1.051682e+02
      vertex   3.850000e+00 4.000000e+00 -1.050000e+02
    endloop
  endfacet
  facet normal 9.914449e-01 0.000000e+00 -1.305262e-01
    outer loop
      vertex   3.850000e+00 1.000000e+00 -1.050000e+02
      vertex   3.850000e+00 4.000000e+00 -1.050000e+02
      vertex   3.872148e+00 1.000000e+00 -1.048318e+02
    endloop
  endfacet
  facet normal 9.914449e-01 0.000000e+00 -1.305262e-01
    outer loop
      vertex   3.872148e+00 1.000000e+00 -1.048318e+02
      vertex   3.850000e+00 4.000000e+00 -1.050000e+02
      vertex   3.872148e+00 4.000000e+00 -1.048318e+02
    endloop
  endfacet
  facet normal 9.238795e-01 0.000000e+00 -3.826834e-01
    outer loop
      vertex   3.872148e+00 1.000000e+00 -1.048318e+02
      vertex   3.872148e+00 4.000000e+00 -1.048318e+02
      vertex   3.937084e+00 1.000000e+00 -1.046750e+02
    endloop
  endfacet
  facet normal 9.238795e-01 0.000000e+00 -3.826834e-01
    outer loop
      vertex   3.937084e+00 1.000000e+00 -1.046750e+02
      vertex   3.872148e+00 4.000000e+00 -1.048318e+02
      vertex   3.937084e+00 4.000000e+00 -1.046750e+02
    endloop
  endfacet
  facet normal 7.933533e-01 0.000000e+00 -6.087614e-01
    outer loop
      vertex   3.937084e+00 1.000000e+00 -1.046750e+02
      vertex   3.937084e+00 4.000000e+00 -1.046750e+02
      vertex   4.040381e+00 1.000000e+00 -1.045404e+02
    endloop
  endfacet
  facet normal 7.933533e-01 0.000000e+00 -6.087614e-01
    outer loop
      vertex   4.040381e+00 1.000000e+00 -1.045404e+02
      vertex   3.937084e+00 4.000000e+00 -1.046750e+02
      vertex   4.040381e+00 4.000000e+00 -1.045404e+02
    endloop
  endfacet
  facet normal 6.087614e-01 0.000000e+00 -7.933533e-01
    outer loop
      vertex   4.040381e+00 1.000000e+00 -1.045404e+02
      vertex   4.040381e+00 4.000000e+00 -1.045404e+02
      vertex   4.175000e+00 1.000000e+00 -1.044371e+02
    endloop
  endfacet
  facet normal 6.087614e-01 -1.802296e-16 -7.933533e-01
    outer loop
      vertex   4.175000e+00 1.000000e+00 -1.044371e+02
      vertex   4.040381e+00 4.000000e+00 -1.045404e+02
      vertex   4.175000e+00 4.000000e+00 -1.044371e+02
    endloop
  endfacet
  facet normal 3.826834e-01 -1.132971e-16 -9.238795e-01
    outer loop
      vertex   4.175000e+00 1.000000e+00 -1.044371e+02
      vertex   4.175000e+00 4.000000e+00 -1.044371e+02
      vertex   4.331768e+00 1.000000e+00 -1.043721e+02
    endloop
  endfacet
  facet normal 3.826834e-01 0.000000e+00 -9.238795e-01
    outer loop
      vertex   4.331768e+00 1.000000e+00 -1.043721e+02
      vertex   4.175000e+00 4.000000e+00 -1.044371e+02
      vertex   4.331768e+00 4.000000e+00 -1.043721e+02
    endloop
  endfacet
  facet normal 1.305262e-01 0.000000e+00 -9.914449e-01
    outer loop
      vertex   4.331768e+00 1.000000e+00 -1.043721e+02
      vertex   4.331768e+00 4.000000e+00 -1.043721e+02
      vertex   4.500000e+00 1.000000e+00 -1.043500e+02
    endloop
  endfacet
  facet normal 1.305262e-01 0.000000e+00 -9.914449e-01
    outer loop
      vertex   4.500000e+00 1.000000e+00 -1.043500e+02
      vertex   4.331768e+00 4.000000e+00 -1.043721e+02
      vertex   4.500000e+00 4.000000e+00 -1.043500e+02
    endloop
  endfacet
  facet normal -1.305262e-01 0.000000e+00 -9.914449e-01
    outer loop
      vertex   4.500000e+00 1.000000e+00 -1.043500e+02
      vertex   4.500000e+00 4.000000e+00 -1.043500e+02
      vertex   4.668232e+00 1.000000e+00 -1.043721e+02
    endloop
  endfacet
  facet normal -1.305262e-01 0.000000e+00 -9.914449e-01
    outer loop
      vertex   4.668232e+00 1.000000e+00 -1.043721e+02
      vertex   4.500000e+00 4.000000e+00 -1.043500e+02
      vertex   4.668232e+00 4.000000e+00 -1.043721e+02
    endloop
  endfacet
  facet normal -3.826834e-01 0.000000e+00 -9.238795e-01
    outer loop
      vertex   4.668232e+00 1.000000e+00 -1.043721e+02
      vertex   4.668232e+00 4.000000e+00 -1.043721e+02
      vertex   4.825000e+00 1.000000e+00 -1.044371e+02
    endloop
  endfacet
  facet normal -3.826834e-01 1.132971e-16 -9.238795e-01
    outer loop
      vertex   4.825000e+00 1.000000e+00 -1.044371e+02
      vertex   4.668232e+00 4.000000e+00 -1.043721e+02
      vertex   4.825000e+00 4.000000e+00 -1.044371e+02
    endloop
  endfacet
  facet normal -6.087614e-01 1.802296e-16 -7.933533e-01
    outer loop
      vertex   4.825000e+00 1.000000e+00 -1.044371e+02
      vertex   4.825000e+00 4.000000e+00 -1.044371e+02
      vertex   4.959619e+00 1.000000e+00 -1.045404e+02
    endloop
  endfacet
  facet normal -6.087614e-01 1.802296e-16 -7.933533e-01
    outer loop
      vertex   4.959619e+00 1.000000e+00 -1.045404e+02
      vertex   4.825000e+00 4.000000e+00 -1.044371e+02
      vertex   4.959619e+00 4.000000e+00 -1.045404e+02
    endloop
  endfacet
  facet normal -7.933533e-01 2.348798e-16 -6.087614e-01
    outer loop
      vertex   4.959619e+00 1.000000e+00 -1.045404e+02
      vertex   4.959619e+00 4.000000e+00 -1.045404e+02
      vertex   5.062917e+00 1.000000e+00 -1.046750e+02
    endloop
  endfacet
  facet normal -7.933533e-01 0.000000e+00 -6.087614e-01
    outer loop
      vertex   5.062917e+00 1.000000e+00 -1.046750e+02
      vertex   4.959619e+00 4.000000e+00 -1.045404e+02
      vertex   5.062917e+00 4.000000e+00 -1.046750e+02
    endloop
  endfacet
  facet normal -9.238795e-01 0.000000e+00 -3.826834e-01
    outer loop
      vertex   5.062917e+00 1.000000e+00 -1.046750e+02
      vertex   5.062917e+00 4.000000e+00 -1.046750e+02
      vertex   5.127852e+00 1.000000e+00 -1.048318e+02
    endloop
  endfacet
  facet normal -9.238795e-01 0.000000e+00 -3.826834e-01
    outer loop
      vertex   5.127852e+00 1.000000e+00 -1.048318e+02
      vertex   5.062917e+00 4.000000e+00 -1.046750e+02
      vertex   5.127852e+00 4.000000e+00 -1.048318e+02
    endloop
  endfacet
  facet normal -9.914449e-01 0.000000e+00 -1.305262e-01
    outer loop
      vertex   5.127852e+00 1.000000e+00 -1.048318e+02
      vertex   5.127852e+00 4.000000e+00 -1.048318e+02
      vertex   5.150000e+00 1.000000e+00 -1.050000e+02
    endloop
  endfacet
  facet normal -9.914449e-01 0.000000e+00 -1.305262e-01
    outer loop
      vertex   5.150000e+00 1.000000e+00 -1.050000e+02
      vertex   5.127852e+00 4.000000e+00 -1.048318e+02
      vertex   5.150000e+00 4.000000e+00 -1.050000e+02
    endloop
  endfacet
  facet normal -9.914449e-01 0.000000e+00 1.305262e-01
    outer loop
      vertex   5.150000e+00 1.000000e+00 -1.050000e+02
      vertex   5.150000e+00 4.000000e+00 -1.050000e+02
      vertex   5.127852e+00 1.000000e+00 -1.051682e+02
    endloop
  endfacet
  facet normal -9.914449e-01 0.000000e+00 1.305262e-01
    outer loop
      vertex   5.127852e+00 1.000000e+00 -1.051682e+02
      vertex   5.150000e+00 4.000000e+00 -1.050000e+02
      vertex   5.127852e+00 4.000000e+00 -1.051682e+02
    endloop
  endfacet
  facet normal -9.238795e-01 0.000000e+00 3.826834e-01
    outer loop
      vertex   5.127852e+00 1.000000e+00 -1.051682e+02
      vertex   5.127852e+00 4.000000e+00 -1.051682e+02
      vertex   5.062917e+00 1.000000e+00 -1.053250e+02
    endloop
  endfacet
  facet normal -9.238795e-01 0.000000e+00 3.826834e-01
    outer loop
      vertex   5.062917e+00 1.000000e+00 -1.053250e+02
      vertex   5.127852e+00 4.000000e+00 -1.051682e+02
      vertex   5.062917e+00 4.000000e+00 -1.053250e+02
    endloop
  endfacet
  facet normal -7.933533e-01 0.000000e+00 6.087614e-01
    outer loop
      vertex   5.062917e+00 1.000000e+00 -1.053250e+02
      vertex   5.062917e+00 4.000000e+00 -1.053250e+02
      vertex   4.959619e+00 1.000000e+00 -1.054596e+02
    endloop
  endfacet
  facet normal -7.933533e-01 -2.348798e-16 6.087614e-01
    outer loop
      vertex   4.959619e+00 1.000000e+00 -1.054596e+02
      vertex   5.062917e+00 4.000000e+00 -1.053250e+02
      vertex   4.959619e+00 4.000000e+00 -1.054596e+02
    endloop
  endfacet
  facet normal -6.087614e-01 -1.802296e-16 7.933533e-01
    outer loop
      vertex   4.959619e+00 1.000000e+00 -1.054596e+02
      vertex   4.959619e+00 4.000000e+00 -1.054596e+02
      vertex   4.825000e+00 1.000000e+00 -1.055629e+02
    endloop
  endfacet
  facet normal -6.087614e-01 -1.802296e-16 7.933533e-01
    outer loop
      vertex   4.825000e+00 1.000000e+00 -1.055629e+02
      vertex   4.959619e+00 4.000000e+00 -1.054596e+02
      vertex   4.825000e+00 4.000000e+00 -1.055629e+02
    endloop
  endfacet
  facet normal -3.826834e-01 -1.132971e-16 9.238795e-01
    outer loop
      vertex   4.825000e+00 1.000000e+00 -1.055629e+02
      vertex   4.825000e+00 4.000000e+00 -1.055629e+02
      vertex   4.668232e+00 1.000000e+00 -1.056278e+02
    endloop
  endfacet
  facet normal -3.826834e-01 0.000000e+00 9.238795e-01
    outer loop
      vertex   4.668232e+00 1.000000e+00 -1.056278e+02
      vertex   4.825000e+00 4.000000e+00 -1.055629e+02
      vertex   4.668232e+00 4.000000e+00 -1.056278e+02
    endloop
  endfacet
  facet normal -1.305262e-01 0.000000e+00 9.914449e-01
    outer loop
      vertex   4.668232e+00 1.000000e+00 -1.056278e+02
      vertex   4.668232e+00 4.000000e+00 -1.056278e+02
      vertex   4.500000e+00 1.000000e+00 -1.056500e+02
    endloop
  endfacet
  facet normal -1.305262e-01 0.000000e+00 9.914449e-01
    outer loop
      vertex   4.500000e+00 1.000000e+00 -1.056500e+02
      vertex   4.668232e+00 4.000000e+00 -1.056278e+02
      vertex   4.500000e+00 4.000000e+00 -1.056500e+02
    endloop
  endfacet
  facet normal 1.305262e-01 -0.000000e+00 9.914449e-01
    outer loop
      vertex   4.500000e+00 1.000000e+00 -1.056500e+02
      vertex   4.500000e+00 4.000000e+00 -1.056500e+02
      vertex   4.331768e+00 1.000000e+00 -1.056278e+02
    endloop
  endfacet
  facet normal 1.305262e-01 -0.000000e+00 9.914449e-01
    outer loop
      vertex   4.331768e+00 1.000000e+00 -1.056278e+02
      vertex   4.500000e+00 4.000000e+00 -1.056500e+02
      vertex   4.331768e+00 4.000000e+00 -1.056278e+02
    endloop
  endfacet
  facet normal 3.826834e-01 -0.000000e+00 9.238795e-01
    outer loop
      vertex   4.331768e+00 1.000000e+00 -1.056278e+02
      vertex   4.331768e+00 4.000000e+00 -1.056278e+02
      vertex   4.175000e+00 1.000000e+00 -1.055629e+02
    endloop
  endfacet
  facet normal 3.826834e-01 1.132971e-16 9.238795e-01
    outer loop
      vertex   4.175000e+00 1.000000e+00 -1.055629e+02
      vertex   4.331768e+00 4.000000e+00 -1.056278e+02
      vertex   4.175000e+00 4.000000e+00 -1.055629e+02
    endloop
  endfacet
  facet normal 6.087614e-01 1.802296e-16 7.933533e-01
    outer loop
      vertex   4.175000e+00 1.000000e+00 -1.055629e+02
      vertex   4.175000e+00 4.000000e+00 -1.055629e+02
      vertex   4.040381e+00 1.000000e+00 -1.054596e+02
    endloop
  endfacet
  facet normal 6.087614e-01 -0.000000e+00 7.933533e-01
    outer loop
      vertex   4.040381e+00 1.000000e+00 -1.054596e+02
      vertex   4.175000e+00 4.000000e+00 -1.055629e+02
      vertex   4.040381e+00 4.000000e+00 -1.054596e+02
    endloop
  endfacet
  facet normal 7.933533e-01 -0.000000e+00 6.087614e-01
    outer loop
      vertex   4.040381e+00 1.000000e+00 -1.054596e+02
      vertex   4.040381e+00 4.000000e+00 -1.054596e+02
      vertex   3.937084e+00 1.000000e+00 -1.053250e+02
    endloop
  endfacet
  facet normal 7.933533e-01 -0.000000e+00 6.087614e-01
    outer loop
      vertex   3.937084e+00 1.000000e+00 -1.053250e+02
      vertex   4.040381e+00 4.000000e+00 -1.054596e+02
      vertex   3.937084e+00 4.000000e+00 -1.053250e+02
    endloop
  endfacet
  facet normal 9.238795e-01 -0.000000e+00 3.826834e-01
    outer loop
      vertex   3.937084e+00 1.000000e+00 -1.053250e+02
      vertex   3.937084e+00 4.000000e+00 -1.053250e+02
      vertex   3.872148e+00 1.000000e+00 -1.051682e+02
    endloop
  endfacet
  facet normal 9.238795e-01 -0.000000e+00 3.826834e-01
    outer loop
      vertex   3.872148e+00 1.000000e+00 -1.051682e+02
      vertex   3.937084e+00 4.000000e+00 -1.053250e+02
      vertex   3.872148e+00 4.000000e+00 -1.051682e+02
    endloop
  endfacet
  facet normal 1.000000e+00 3.711326e-15 0.000000e+00
    outer loop
      vertex   6.000000e+00 2.260684e+00 -1.040291e+02
      vertex   6.000000e+00 2.260684e+00 -1.059709e+02
      vertex   6.000000e+00 2.500000e+00 -1.040000e+02
    endloop
  endfacet
  facet normal 1.000000e+00 5.392219e-17 4.440892e-16
    outer loop
      vertex   6.000000e+00 2.500000e+00 -1.040000e+02
      vertex   6.000000e+00 2.260684e+00 -1.059709e+02
      vertex   6.000000e+00 2.500000e+00 -1.060000e+02
    endloop
  endfacet
  facet normal 1.000000e+00 -3.657404e-15 4.440892e-16
    outer loop
      vertex   6.000000e+00 2.500000e+00 -1.040000e+02
      vertex   6.000000e+00 2.500000e+00 -1.060000e+02
      vertex   6.000000e+00 2.739316e+00 -1.040291e+02
    endloop
  endfacet
  facet normal 1.000000e+00 0.000000e+00 0.000000e+00
    outer loop
      vertex   6.000000e+00 2.739316e+00 -1.040291e+02
      vertex   6.000000e+00 2.500000e+00 -1.060000e+02
      vertex   6.000000e+00 2.739316e+00 -1.059709e+02
    endloop
  endfacet
  facet normal 1.000000e+00 0.000000e+00 0.000000e+00
    outer loop
      vertex   6.000000e+00 2.739316e+00 -1.040291e+02
      vertex   6.000000e+00 2.739316e+00 -1.059709e+02
      vertex   6.000000e+00 2.964723e+00 -1.041145e+02
    endloop
  endfacet
  facet normal 1.000000e+00 0.000000e+00 0.000000e+00
    outer loop
      vertex   6.000000e+00 2.964723e+00 -1.041145e+02
      vertex   6.000000e+00 2.739316e+00 -1.059709e+02
      vertex   6.000000e+00 2.964723e+00 -1.058855e+02
    endloop
  endfacet
  facet normal 1.000000e+00 0.000000e+00 0.000000e+00
    outer loop
      vertex   6.000000e+00 2.964723e+00 -1.041145e+02
      vertex   6.000000e+00 2.964723e+00 -1.058855e+02
      vertex   6.000000e+00 3.163123e+00 -1.042515e+02
    endloop
  endfacet
  facet normal 1.000000e+00 0.000000e+00 0.000000e+00
    outer loop
      vertex   6.000000e+00 3.163123e+00 -1.042515e+02
      vertex   6.000000e+00 2.964723e+00 -1.058855e+02
      vertex   6.000000e+00 3.163123e+00 -1.057485e+02
    endloop
  endfacet
  facet normal 1.000000e+00 0.000000e+00 0.000000e+00
    outer loop
      vertex   6.000000e+00 3.163123e+00 -1.042515e+02
      vertex   6.000000e+00 3.163123e+00 -1.057485e+02
      vertex   6.000000e+00 3.322984e+00 -1.044319e+02
    endloop
  endfacet
  facet normal 1.000000e+00 0.000000e+00 0.000000e+00
    outer loop
      vertex   6.000000e+00 3.322984e+00 -1.044319e+02
      vertex   6.000000e+00 3.163123e+00 -1.057485e+02
      vertex   6.000000e+00 3.322984e+00 -1.055681e+02
    endloop
  endfacet
  facet normal 1.000000e+00 0.000000e+00 0.000000e+00
    outer loop
      vertex   6.000000e+00 3.322984e+00 -1.044319e+02
      vertex   6.000000e+00 3.322984e+00 -1.055681e+02
      vertex   6.000000e+00 3.435016e+00 -1.046454e+02
    endloop
  endfacet
  facet normal 1.000000e+00 0.000000e+00 0.000000e+00
    outer loop
      vertex   6.000000e+00 3.435016e+00 -1.046454e+02
      vertex   6.000000e+00 3.322984e+00 -1.055681e+02
      vertex   6.000000e+00 3.435016e+00 -1.053546e+02
    endloop
  endfacet
  facet normal 1.000000e+00 0.000000e+00 0.000000e+00
    outer loop
      vertex   6.000000e+00 3.435016e+00 -1.046454e+02
      vertex   6.000000e+00 3.435016e+00 -1.053546e+02
      vertex   6.000000e+00 3.492709e+00 -1.048795e+02
    endloop
  endfacet
  facet normal 1.000000e+00 0.000000e+00 0.000000e+00
    outer loop
      vertex   6.000000e+00 3.492709e+00 -1.048795e+02
      vertex   6.000000e+00 3.435016e+00 -1.053546e+02
      vertex   6.000000e+00 3.492709e+00 -1.051205e+02
    endloop
  endfacet
  facet normal 1.000000e+00 0.000000e+00 -0.000000e+00
    outer loop
      vertex   6.000000e+00 2.260684e+00 -1.059709e+02
      vertex   6.000000e+00 2.260684e+00 -1.040291e+02
      vertex   6.000000e+00 2.035277e+00 -1.058855e+02
    endloop
  endfacet
  facet normal 1.000000e+00 0.000000e+00 0.000000e+00
    outer loop
      vertex   6.000000e+00 2.035277e+00 -1.058855e+02
      vertex   6.000000e+00 2.260684e+00 -1.040291e+02
      vertex   6.000000e+00 2.035277e+00 -1.041145e+02
    endloop
  endfacet
  facet normal 1.000000e+00 0.000000e+00 -0.000000e+00
    outer loop
      vertex   6.000000e+00 2.035277e+00 -1.058855e+02
      vertex   6.000000e+00 2.035277e+00 -1.041145e+02
      vertex   6.000000e+00 1.836877e+00 -1.057485e+02
    endloop
  endfacet
  facet normal 1.000000e+00 0.000000e+00 0.000000e+00
    outer loop
      vertex   6.000000e+00 1.836877e+00 -1.057485e+02
      vertex   6.000000e+00 2.035277e+00 -1.041145e+02
      vertex   6.000000e+00 1.836877e+00 -1.042515e+02
    endloop
  endfacet
  facet normal 1.000000e+00 0.000000e+00 -0.000000e+00
    outer loop
      vertex   6.000000e+00 1.836877e+00 -1.057485e+02
      vertex   6.000000e+00 1.836877e+00 -1.042515e+02
      vertex   6.000000e+00 1.677016e+00 -1.055681e+02
    endloop
  endfacet
  facet normal 1.000000e+00 0.000000e+00 0.000000e+00
    outer loop
      vertex   6.000000e+00 1.677016e+00 -1.055681e+02
      vertex   6.000000e+00 1.836877e+00 -1.042515e+02
      vertex   6.000000e+00 1.677016e+00 -1.044319e+02
    endloop
  endfacet
  facet normal 1.000000e+00 0.000000e+00 -0.000000e+00
    outer loop
      vertex   6.000000e+00 1.677016e+00 -1.055681e+02
      vertex   6.000000e+00 1.677016e+00 -1.044319e+02
      vertex   6.000000e+00 1.564984e+00 -1.053546e+02
    endloop
  endfacet
  facet normal 1.000000e+00 0.000000e+00 0.000000e+00
    outer loop
      vertex   6.000000e+00 1.564984e+00 -1.053546e+02
      vertex   6.000000e+00 1.677016e+00 -1.044319e+02
      vertex   6.000000e+00 1.564984e+00 -1.046454e+02
    endloop
  endfacet
  facet normal 1.000000e+00 0.000000e+00 -0.000000e+00
    outer loop
      vertex   6.000000e+00 1.564984e+00 -1.053546e+02
      vertex   6.000000e+00 1.564984e+00 -1.046454e+02
      vertex   6.000000e+00 1.507291e+00 -1.051205e+02
    endloop
  endfacet
  facet normal 1.000000e+00 0.000000e+00 0.000000e+00
    outer loop
      vertex   6.000000e+00 1.507291e+00 -1.051205e+02
      vertex   6.000000e+00 1.564984e+00 -1.046454e+02
      vertex   6.000000e+00 1.507291e+00 -1.048795e+02
    endloop
  endfacet
endsolid
