solid ASCII
  facet normal -1.000000e+00 0.000000e+00 0.000000e+00
    outer loop
      vertex   -1.000000e+00 1.210000e+01 -3.350000e+01
      vertex   -1.000000e+00 1.210000e+01 -3.250000e+01
      vertex   -1.000000e+00 1.330000e+01 -3.350000e+01
    endloop
  endfacet
  facet normal -1.000000e+00 0.000000e+00 0.000000e+00
    outer loop
      vertex   -1.000000e+00 1.330000e+01 -3.350000e+01
      vertex   -1.000000e+00 1.210000e+01 -3.250000e+01
      vertex   -1.000000e+00 1.330000e+01 -1.950000e+01
    endloop
  endfacet
  facet normal -1.000000e+00 -0.000000e+00 0.000000e+00
    outer loop
      vertex   -1.000000e+00 1.330000e+01 -1.950000e+01
      vertex   -1.000000e+00 1.210000e+01 -3.250000e+01
      vertex   -1.000000e+00 0.000000e+00 -1.950000e+01
    endloop
  endfacet
  facet normal -1.000000e+00 0.000000e+00 0.000000e+00
    outer loop
      vertex   -1.000000e+00 0.000000e+00 -1.950000e+01
      vertex   -1.000000e+00 1.210000e+01 -3.250000e+01
      vertex   -1.000000e+00 0.000000e+00 -3.250000e+01
    endloop
  endfacet
  facet normal 0.000000e+00 1.000000e+00 -0.000000e+00
    outer loop
      vertex   0.000000e+00 1.330000e+01 -3.350000e+01
      vertex   -1.000000e+00 1.330000e+01 -3.350000e+01
      vertex   0.000000e+00 1.330000e+01 -1.950000e+01
    endloop
  endfacet
  facet normal 0.000000e+00 1.000000e+00 0.000000e+00
    outer loop
      vertex   0.000000e+00 1.330000e+01 -1.950000e+01
      vertex   -1.000000e+00 1.330000e+01 -3.350000e+01
      vertex   -1.000000e+00 1.330000e+01 -1.950000e+01
    endloop
  endfacet
  facet normal 0.000000e+00 0.000000e+00 1.000000e+00
    outer loop
      vertex   -1.000000e+00 0.000000e+00 -1.950000e+01
      vertex   0.000000e+00 0.000000e+00 -1.950000e+01
      vertex   -1.000000e+00 1.330000e+01 -1.950000e+01
    endloop
  endfacet
  facet normal -0.000000e+00 0.000000e+00 1.000000e+00
    outer loop
      vertex   -1.000000e+00 1.330000e+01 -1.950000e+01
      vertex   0.000000e+00 0.000000e+00 -1.950000e+01
      vertex   0.000000e+00 1.330000e+01 -1.950000e+01
    endloop
  endfacet
  facet normal 1.000000e+00 1.332268e-15 -0.000000e+00
    outer loop
      vertex   -4.000000e+00 -1.000000e+00 -3.630000e+01
      vertex   -4.000000e+00 0.000000e+00 -3.630000e+01
      vertex   -4.000000e+00 -1.000000e+00 -3.350000e+01
    endloop
  endfacet
  facet normal 1.000000e+00 1.332268e-15 0.000000e+00
    outer loop
      vertex   -4.000000e+00 -1.000000e+00 -3.350000e+01
      vertex   -4.000000e+00 0.000000e+00 -3.630000e+01
      vertex   -4.000000e+00 0.000000e+00 -3.350000e+01
    endloop
  endfacet
  facet normal 0.000000e+00 -1.000000e+00 0.000000e+00
    outer loop
      vertex   -4.000000e+00 -1.000000e+00 -3.630000e+01
      vertex   -4.000000e+00 -1.000000e+00 -3.350000e+01
      vertex   -3.140000e+01 -1.000000e+00 -3.630000e+01
    endloop
  endfacet
  facet normal 0.000000e+00 -1.000000e+00 0.000000e+00
    outer loop
      vertex   -3.140000e+01 -1.000000e+00 -3.630000e+01
      vertex   -4.000000e+00 -1.000000e+00 -3.350000e+01
      vertex   -3.140000e+01 -1.000000e+00 0.000000e+00
    endloop
  endfacet
  facet normal 0.000000e+00 -1.000000e+00 0.000000e+00
    outer loop
      vertex   -3.140000e+01 -1.000000e+00 0.000000e+00
      vertex   -4.000000e+00 -1.000000e+00 -3.350000e+01
      vertex   0.000000e+00 -1.000000e+00 0.000000e+00
    endloop
  endfacet
  facet normal 0.000000e+00 -1.000000e+00 -0.000000e+00
    outer loop
      vertex   0.000000e+00 -1.000000e+00 0.000000e+00
      vertex   -4.000000e+00 -1.000000e+00 -3.350000e+01
      vertex   0.000000e+00 -1.000000e+00 -3.350000e+01
    endloop
  endfacet
  facet normal -1.000000e+00 -0.000000e+00 -0.000000e+00
    outer loop
      vertex   -3.140000e+01 0.000000e+00 0.000000e+00
      vertex   -3.140000e+01 0.000000e+00 -3.630000e+01
      vertex   -3.140000e+01 -1.000000e+00 0.000000e+00
    endloop
  endfacet
  facet normal -1.000000e+00 0.000000e+00 0.000000e+00
    outer loop
      vertex   -3.140000e+01 -1.000000e+00 0.000000e+00
      vertex   -3.140000e+01 0.000000e+00 -3.630000e+01
      vertex   -3.140000e+01 -1.000000e+00 -3.630000e+01
    endloop
  endfacet
  facet normal -0.000000e+00 0.000000e+00 1.000000e+00
    outer loop
      vertex   -3.140000e+01 0.000000e+00 0.000000e+00
      vertex   -3.140000e+01 -1.000000e+00 0.000000e+00
      vertex   -2.360000e+01 0.000000e+00 0.000000e+00
    endloop
  endfacet
  facet normal -0.000000e+00 0.000000e+00 1.000000e+00
    outer loop
      vertex   -2.360000e+01 0.000000e+00 0.000000e+00
      vertex   -3.140000e+01 -1.000000e+00 0.000000e+00
      vertex   -1.160000e+01 0.000000e+00 0.000000e+00
    endloop
  endfacet
  facet normal 0.000000e+00 0.000000e+00 1.000000e+00
    outer loop
      vertex   -2.360000e+01 0.000000e+00 0.000000e+00
      vertex   -1.160000e+01 0.000000e+00 0.000000e+00
      vertex   -1.160000e+01 1.210000e+01 0.000000e+00
    endloop
  endfacet
  facet normal 0.000000e+00 0.000000e+00 1.000000e+00
    outer loop
      vertex   -3.140000e+01 -1.000000e+00 0.000000e+00
      vertex   0.000000e+00 -1.000000e+00 0.000000e+00
      vertex   -1.160000e+01 0.000000e+00 0.000000e+00
    endloop
  endfacet
  facet normal -0.000000e+00 0.000000e+00 1.000000e+00
    outer loop
      vertex   -1.160000e+01 0.000000e+00 0.000000e+00
      vertex   0.000000e+00 -1.000000e+00 0.000000e+00
      vertex   0.000000e+00 0.000000e+00 0.000000e+00
    endloop
  endfacet
  facet normal 0.000000e+00 0.000000e+00 1.000000e+00
    outer loop
      vertex   -1.160000e+01 1.210000e+01 0.000000e+00
      vertex   -2.360000e+01 1.210000e+01 0.000000e+00
      vertex   -2.360000e+01 0.000000e+00 0.000000e+00
    endloop
  endfacet
  facet normal 0.000000e+00 1.000000e+00 0.000000e+00
    outer loop
      vertex   -2.087274e+01 1.210000e+01 -3.085705e+01
      vertex   -2.860000e+01 1.210000e+01 -3.350000e+01
      vertex   -2.090000e+01 1.210000e+01 -3.065000e+01
    endloop
  endfacet
  facet normal 0.000000e+00 1.000000e+00 0.000000e+00
    outer loop
      vertex   -2.090000e+01 1.210000e+01 -3.065000e+01
      vertex   -2.860000e+01 1.210000e+01 -3.350000e+01
      vertex   -2.860000e+01 1.210000e+01 -2.780000e+01
    endloop
  endfacet
  facet normal 0.000000e+00 1.000000e+00 -0.000000e+00
    outer loop
      vertex   -2.090000e+01 1.210000e+01 -3.065000e+01
      vertex   -2.860000e+01 1.210000e+01 -2.780000e+01
      vertex   -2.087274e+01 1.210000e+01 -3.044294e+01
    endloop
  endfacet
  facet normal 0.000000e+00 1.000000e+00 -0.000000e+00
    outer loop
      vertex   -2.087274e+01 1.210000e+01 -3.044294e+01
      vertex   -2.860000e+01 1.210000e+01 -2.780000e+01
      vertex   -2.079282e+01 1.210000e+01 -3.025000e+01
    endloop
  endfacet
  facet normal 0.000000e+00 1.000000e+00 -0.000000e+00
    outer loop
      vertex   -2.079282e+01 1.210000e+01 -3.025000e+01
      vertex   -2.860000e+01 1.210000e+01 -2.780000e+01
      vertex   -2.066568e+01 1.210000e+01 -3.008431e+01
    endloop
  endfacet
  facet normal 0.000000e+00 1.000000e+00 -0.000000e+00
    outer loop
      vertex   -2.066568e+01 1.210000e+01 -3.008431e+01
      vertex   -2.860000e+01 1.210000e+01 -2.780000e+01
      vertex   -2.050000e+01 1.210000e+01 -2.995718e+01
    endloop
  endfacet
  facet normal 0.000000e+00 1.000000e+00 -0.000000e+00
    outer loop
      vertex   -2.050000e+01 1.210000e+01 -2.995718e+01
      vertex   -2.860000e+01 1.210000e+01 -2.780000e+01
      vertex   -2.030705e+01 1.210000e+01 -2.987726e+01
    endloop
  endfacet
  facet normal 0.000000e+00 1.000000e+00 -0.000000e+00
    outer loop
      vertex   -2.030705e+01 1.210000e+01 -2.987726e+01
      vertex   -2.860000e+01 1.210000e+01 -2.780000e+01
      vertex   -2.010000e+01 1.210000e+01 -2.985000e+01
    endloop
  endfacet
  facet normal 0.000000e+00 1.000000e+00 -0.000000e+00
    outer loop
      vertex   -2.010000e+01 1.210000e+01 -2.985000e+01
      vertex   -2.860000e+01 1.210000e+01 -2.780000e+01
      vertex   -1.160000e+01 1.210000e+01 -2.780000e+01
    endloop
  endfacet
  facet normal -0.000000e+00 1.000000e+00 0.000000e+00
    outer loop
      vertex   -2.010000e+01 1.210000e+01 -2.985000e+01
      vertex   -1.160000e+01 1.210000e+01 -2.780000e+01
      vertex   -1.989294e+01 1.210000e+01 -2.987726e+01
    endloop
  endfacet
  facet normal -0.000000e+00 1.000000e+00 0.000000e+00
    outer loop
      vertex   -1.989294e+01 1.210000e+01 -2.987726e+01
      vertex   -1.160000e+01 1.210000e+01 -2.780000e+01
      vertex   -1.970000e+01 1.210000e+01 -2.995718e+01
    endloop
  endfacet
  facet normal -0.000000e+00 1.000000e+00 0.000000e+00
    outer loop
      vertex   -1.970000e+01 1.210000e+01 -2.995718e+01
      vertex   -1.160000e+01 1.210000e+01 -2.780000e+01
      vertex   -1.953431e+01 1.210000e+01 -3.008431e+01
    endloop
  endfacet
  facet normal -0.000000e+00 1.000000e+00 0.000000e+00
    outer loop
      vertex   -1.953431e+01 1.210000e+01 -3.008431e+01
      vertex   -1.160000e+01 1.210000e+01 -2.780000e+01
      vertex   -1.940718e+01 1.210000e+01 -3.025000e+01
    endloop
  endfacet
  facet normal -0.000000e+00 1.000000e+00 0.000000e+00
    outer loop
      vertex   -1.940718e+01 1.210000e+01 -3.025000e+01
      vertex   -1.160000e+01 1.210000e+01 -2.780000e+01
      vertex   -1.932726e+01 1.210000e+01 -3.044294e+01
    endloop
  endfacet
  facet normal -0.000000e+00 1.000000e+00 0.000000e+00
    outer loop
      vertex   -1.932726e+01 1.210000e+01 -3.044294e+01
      vertex   -1.160000e+01 1.210000e+01 -2.780000e+01
      vertex   -1.160000e+01 1.210000e+01 -3.250000e+01
    endloop
  endfacet
  facet normal 0.000000e+00 1.000000e+00 0.000000e+00
    outer loop
      vertex   -1.932726e+01 1.210000e+01 -3.044294e+01
      vertex   -1.160000e+01 1.210000e+01 -3.250000e+01
      vertex   -1.930000e+01 1.210000e+01 -3.065000e+01
    endloop
  endfacet
  facet normal 0.000000e+00 1.000000e+00 0.000000e+00
    outer loop
      vertex   -1.930000e+01 1.210000e+01 -3.065000e+01
      vertex   -1.160000e+01 1.210000e+01 -3.250000e+01
      vertex   -1.932726e+01 1.210000e+01 -3.085705e+01
    endloop
  endfacet
  facet normal 0.000000e+00 1.000000e+00 0.000000e+00
    outer loop
      vertex   -1.932726e+01 1.210000e+01 -3.085705e+01
      vertex   -1.160000e+01 1.210000e+01 -3.250000e+01
      vertex   -1.940718e+01 1.210000e+01 -3.105000e+01
    endloop
  endfacet
  facet normal 0.000000e+00 1.000000e+00 0.000000e+00
    outer loop
      vertex   -1.940718e+01 1.210000e+01 -3.105000e+01
      vertex   -1.160000e+01 1.210000e+01 -3.250000e+01
      vertex   -1.953431e+01 1.210000e+01 -3.121568e+01
    endloop
  endfacet
  facet normal 0.000000e+00 1.000000e+00 0.000000e+00
    outer loop
      vertex   -1.953431e+01 1.210000e+01 -3.121568e+01
      vertex   -1.160000e+01 1.210000e+01 -3.250000e+01
      vertex   -1.970000e+01 1.210000e+01 -3.134282e+01
    endloop
  endfacet
  facet normal 0.000000e+00 1.000000e+00 0.000000e+00
    outer loop
      vertex   -1.970000e+01 1.210000e+01 -3.134282e+01
      vertex   -1.160000e+01 1.210000e+01 -3.250000e+01
      vertex   -1.989294e+01 1.210000e+01 -3.142274e+01
    endloop
  endfacet
  facet normal 0.000000e+00 1.000000e+00 0.000000e+00
    outer loop
      vertex   -1.989294e+01 1.210000e+01 -3.142274e+01
      vertex   -1.160000e+01 1.210000e+01 -3.250000e+01
      vertex   -2.010000e+01 1.210000e+01 -3.145000e+01
    endloop
  endfacet
  facet normal 0.000000e+00 1.000000e+00 0.000000e+00
    outer loop
      vertex   -2.010000e+01 1.210000e+01 -3.145000e+01
      vertex   -1.160000e+01 1.210000e+01 -3.250000e+01
      vertex   -2.860000e+01 1.210000e+01 -3.350000e+01
    endloop
  endfacet
  facet normal 0.000000e+00 1.000000e+00 0.000000e+00
    outer loop
      vertex   -2.010000e+01 1.210000e+01 -3.145000e+01
      vertex   -2.860000e+01 1.210000e+01 -3.350000e+01
      vertex   -2.030705e+01 1.210000e+01 -3.142274e+01
    endloop
  endfacet
  facet normal 0.000000e+00 1.000000e+00 0.000000e+00
    outer loop
      vertex   -2.030705e+01 1.210000e+01 -3.142274e+01
      vertex   -2.860000e+01 1.210000e+01 -3.350000e+01
      vertex   -2.050000e+01 1.210000e+01 -3.134282e+01
    endloop
  endfacet
  facet normal 0.000000e+00 1.000000e+00 0.000000e+00
    outer loop
      vertex   -2.050000e+01 1.210000e+01 -3.134282e+01
      vertex   -2.860000e+01 1.210000e+01 -3.350000e+01
      vertex   -2.066568e+01 1.210000e+01 -3.121568e+01
    endloop
  endfacet
  facet normal 0.000000e+00 1.000000e+00 0.000000e+00
    outer loop
      vertex   -2.066568e+01 1.210000e+01 -3.121568e+01
      vertex   -2.860000e+01 1.210000e+01 -3.350000e+01
      vertex   -2.079282e+01 1.210000e+01 -3.105000e+01
    endloop
  endfacet
  facet normal 0.000000e+00 1.000000e+00 0.000000e+00
    outer loop
      vertex   -2.079282e+01 1.210000e+01 -3.105000e+01
      vertex   -2.860000e+01 1.210000e+01 -3.350000e+01
      vertex   -2.087274e+01 1.210000e+01 -3.085705e+01
    endloop
  endfacet
  facet normal 0.000000e+00 1.000000e+00 0.000000e+00
    outer loop
      vertex   -1.000000e+00 1.210000e+01 -3.250000e+01
      vertex   -1.000000e+00 1.210000e+01 -3.350000e+01
      vertex   -1.160000e+01 1.210000e+01 -3.250000e+01
    endloop
  endfacet
  facet normal 0.000000e+00 1.000000e+00 0.000000e+00
    outer loop
      vertex   -1.160000e+01 1.210000e+01 -3.250000e+01
      vertex   -1.000000e+00 1.210000e+01 -3.350000e+01
      vertex   -2.860000e+01 1.210000e+01 -3.350000e+01
    endloop
  endfacet
  facet normal 0.000000e+00 0.000000e+00 -1.000000e+00
    outer loop
      vertex   -2.860000e+01 0.000000e+00 -3.350000e+01
      vertex   -2.860000e+01 1.210000e+01 -3.350000e+01
      vertex   -4.000000e+00 0.000000e+00 -3.350000e+01
    endloop
  endfacet
  facet normal 0.000000e+00 0.000000e+00 -1.000000e+00
    outer loop
      vertex   -4.000000e+00 0.000000e+00 -3.350000e+01
      vertex   -2.860000e+01 1.210000e+01 -3.350000e+01
      vertex   -1.000000e+00 1.210000e+01 -3.350000e+01
    endloop
  endfacet
  facet normal 0.000000e+00 0.000000e+00 -1.000000e+00
    outer loop
      vertex   -4.000000e+00 0.000000e+00 -3.350000e+01
      vertex   -1.000000e+00 1.210000e+01 -3.350000e+01
      vertex   0.000000e+00 -1.000000e+00 -3.350000e+01
    endloop
  endfacet
  facet normal 0.000000e+00 0.000000e+00 -1.000000e+00
    outer loop
      vertex   0.000000e+00 -1.000000e+00 -3.350000e+01
      vertex   -1.000000e+00 1.210000e+01 -3.350000e+01
      vertex   0.000000e+00 1.330000e+01 -3.350000e+01
    endloop
  endfacet
  facet normal -0.000000e+00 0.000000e+00 -1.000000e+00
    outer loop
      vertex   0.000000e+00 1.330000e+01 -3.350000e+01
      vertex   -1.000000e+00 1.210000e+01 -3.350000e+01
      vertex   -1.000000e+00 1.330000e+01 -3.350000e+01
    endloop
  endfacet
  facet normal 1.247972e-07 4.991889e-07 -1.000000e+00
    outer loop
      vertex   0.000000e+00 -1.000000e+00 -3.350000e+01
      vertex   -4.000000e+00 -1.000000e+00 -3.350000e+01
      vertex   -4.000000e+00 0.000000e+00 -3.350000e+01
    endloop
  endfacet
  facet normal 0.000000e+00 0.000000e+00 -1.000000e+00
    outer loop
      vertex   -4.000000e+00 -1.000000e+00 -3.630000e+01
      vertex   -3.140000e+01 -1.000000e+00 -3.630000e+01
      vertex   -4.000000e+00 0.000000e+00 -3.630000e+01
    endloop
  endfacet
  facet normal -0.000000e+00 0.000000e+00 -1.000000e+00
    outer loop
      vertex   -4.000000e+00 0.000000e+00 -3.630000e+01
      vertex   -3.140000e+01 -1.000000e+00 -3.630000e+01
      vertex   -3.140000e+01 0.000000e+00 -3.630000e+01
    endloop
  endfacet
  facet normal 1.000000e+00 0.000000e+00 0.000000e+00
    outer loop
      vertex   0.000000e+00 0.000000e+00 0.000000e+00
      vertex   0.000000e+00 -1.000000e+00 0.000000e+00
      vertex   0.000000e+00 0.000000e+00 -1.950000e+01
    endloop
  endfacet
  facet normal 1.000000e+00 0.000000e+00 0.000000e+00
    outer loop
      vertex   0.000000e+00 0.000000e+00 -1.950000e+01
      vertex   0.000000e+00 -1.000000e+00 0.000000e+00
      vertex   0.000000e+00 -1.000000e+00 -3.350000e+01
    endloop
  endfacet
  facet normal 1.000000e+00 0.000000e+00 0.000000e+00
    outer loop
      vertex   0.000000e+00 0.000000e+00 -1.950000e+01
      vertex   0.000000e+00 -1.000000e+00 -3.350000e+01
      vertex   0.000000e+00 1.330000e+01 -3.350000e+01
    endloop
  endfacet
  facet normal 1.000000e+00 0.000000e+00 -0.000000e+00
    outer loop
      vertex   0.000000e+00 1.330000e+01 -3.350000e+01
      vertex   0.000000e+00 1.330000e+01 -1.950000e+01
      vertex   0.000000e+00 0.000000e+00 -1.950000e+01
    endloop
  endfacet
  facet normal 0.000000e+00 1.000000e+00 0.000000e+00
    outer loop
      vertex   -4.000000e+00 0.000000e+00 -3.350000e+01
      vertex   -4.000000e+00 0.000000e+00 -3.630000e+01
      vertex   -2.860000e+01 0.000000e+00 -3.350000e+01
    endloop
  endfacet
  facet normal 0.000000e+00 1.000000e+00 0.000000e+00
    outer loop
      vertex   -2.860000e+01 0.000000e+00 -3.350000e+01
      vertex   -4.000000e+00 0.000000e+00 -3.630000e+01
      vertex   -3.140000e+01 0.000000e+00 -3.630000e+01
    endloop
  endfacet
  facet normal 0.000000e+00 1.000000e+00 -0.000000e+00
    outer loop
      vertex   -2.860000e+01 0.000000e+00 -3.350000e+01
      vertex   -3.140000e+01 0.000000e+00 -3.630000e+01
      vertex   -2.860000e+01 0.000000e+00 -2.780000e+01
    endloop
  endfacet
  facet normal 0.000000e+00 1.000000e+00 0.000000e+00
    outer loop
      vertex   -2.860000e+01 0.000000e+00 -2.780000e+01
      vertex   -3.140000e+01 0.000000e+00 -3.630000e+01
      vertex   -3.140000e+01 0.000000e+00 0.000000e+00
    endloop
  endfacet
  facet normal 0.000000e+00 1.000000e+00 -0.000000e+00
    outer loop
      vertex   -2.860000e+01 0.000000e+00 -2.780000e+01
      vertex   -3.140000e+01 0.000000e+00 0.000000e+00
      vertex   -2.360000e+01 0.000000e+00 -4.700000e+00
    endloop
  endfacet
  facet normal 0.000000e+00 1.000000e+00 -0.000000e+00
    outer loop
      vertex   -2.360000e+01 0.000000e+00 -4.700000e+00
      vertex   -3.140000e+01 0.000000e+00 0.000000e+00
      vertex   -2.360000e+01 0.000000e+00 0.000000e+00
    endloop
  endfacet
  facet normal 0.000000e+00 1.000000e+00 0.000000e+00
    outer loop
      vertex   -2.860000e+01 0.000000e+00 -2.780000e+01
      vertex   -2.360000e+01 0.000000e+00 -4.700000e+00
      vertex   -1.160000e+01 0.000000e+00 -2.780000e+01
    endloop
  endfacet
  facet normal 0.000000e+00 1.000000e+00 -0.000000e+00
    outer loop
      vertex   -1.160000e+01 0.000000e+00 -2.780000e+01
      vertex   -2.360000e+01 0.000000e+00 -4.700000e+00
      vertex   -1.160000e+01 0.000000e+00 -4.700000e+00
    endloop
  endfacet
  facet normal 0.000000e+00 1.000000e+00 0.000000e+00
    outer loop
      vertex   -1.160000e+01 0.000000e+00 -2.780000e+01
      vertex   -1.160000e+01 0.000000e+00 -4.700000e+00
      vertex   -1.000000e+00 0.000000e+00 -1.950000e+01
    endloop
  endfacet
  facet normal 0.000000e+00 1.000000e+00 -0.000000e+00
    outer loop
      vertex   -1.000000e+00 0.000000e+00 -1.950000e+01
      vertex   -1.160000e+01 0.000000e+00 -4.700000e+00
      vertex   0.000000e+00 0.000000e+00 0.000000e+00
    endloop
  endfacet
  facet normal 0.000000e+00 1.000000e+00 0.000000e+00
    outer loop
      vertex   -1.000000e+00 0.000000e+00 -1.950000e+01
      vertex   0.000000e+00 0.000000e+00 0.000000e+00
      vertex   0.000000e+00 0.000000e+00 -1.950000e+01
    endloop
  endfacet
  facet normal 0.000000e+00 1.000000e+00 0.000000e+00
    outer loop
      vertex   -1.160000e+01 0.000000e+00 -4.700000e+00
      vertex   -1.160000e+01 0.000000e+00 0.000000e+00
      vertex   0.000000e+00 0.000000e+00 0.000000e+00
    endloop
  endfacet
  facet normal 0.000000e+00 1.000000e+00 0.000000e+00
    outer loop
      vertex   -1.000000e+00 0.000000e+00 -1.950000e+01
      vertex   -1.000000e+00 0.000000e+00 -3.250000e+01
      vertex   -1.160000e+01 0.000000e+00 -2.780000e+01
    endloop
  endfacet
  facet normal 0.000000e+00 1.000000e+00 0.000000e+00
    outer loop
      vertex   -1.160000e+01 0.000000e+00 -2.780000e+01
      vertex   -1.000000e+00 0.000000e+00 -3.250000e+01
      vertex   -1.160000e+01 0.000000e+00 -3.250000e+01
    endloop
  endfacet
  facet normal 9.914449e-01 -0.000000e+00 1.305262e-01
    outer loop
      vertex   -2.087274e+01 8.600000e+00 -3.085705e+01
      vertex   -2.087274e+01 1.210000e+01 -3.085705e+01
      vertex   -2.090000e+01 8.600000e+00 -3.065000e+01
    endloop
  endfacet
  facet normal 9.914449e-01 -0.000000e+00 1.305262e-01
    outer loop
      vertex   -2.090000e+01 8.600000e+00 -3.065000e+01
      vertex   -2.087274e+01 1.210000e+01 -3.085705e+01
      vertex   -2.090000e+01 1.210000e+01 -3.065000e+01
    endloop
  endfacet
  facet normal 9.914449e-01 0.000000e+00 -1.305262e-01
    outer loop
      vertex   -2.090000e+01 8.600000e+00 -3.065000e+01
      vertex   -2.090000e+01 1.210000e+01 -3.065000e+01
      vertex   -2.087274e+01 8.600000e+00 -3.044294e+01
    endloop
  endfacet
  facet normal 9.914449e-01 0.000000e+00 -1.305262e-01
    outer loop
      vertex   -2.087274e+01 8.600000e+00 -3.044294e+01
      vertex   -2.090000e+01 1.210000e+01 -3.065000e+01
      vertex   -2.087274e+01 1.210000e+01 -3.044294e+01
    endloop
  endfacet
  facet normal 9.238795e-01 0.000000e+00 -3.826834e-01
    outer loop
      vertex   -2.087274e+01 8.600000e+00 -3.044294e+01
      vertex   -2.087274e+01 1.210000e+01 -3.044294e+01
      vertex   -2.079282e+01 8.600000e+00 -3.025000e+01
    endloop
  endfacet
  facet normal 9.238795e-01 0.000000e+00 -3.826834e-01
    outer loop
      vertex   -2.079282e+01 8.600000e+00 -3.025000e+01
      vertex   -2.087274e+01 1.210000e+01 -3.044294e+01
      vertex   -2.079282e+01 1.210000e+01 -3.025000e+01
    endloop
  endfacet
  facet normal 7.933533e-01 0.000000e+00 -6.087614e-01
    outer loop
      vertex   -2.079282e+01 8.600000e+00 -3.025000e+01
      vertex   -2.079282e+01 1.210000e+01 -3.025000e+01
      vertex   -2.066568e+01 8.600000e+00 -3.008431e+01
    endloop
  endfacet
  facet normal 7.933533e-01 0.000000e+00 -6.087614e-01
    outer loop
      vertex   -2.066568e+01 8.600000e+00 -3.008431e+01
      vertex   -2.079282e+01 1.210000e+01 -3.025000e+01
      vertex   -2.066568e+01 1.210000e+01 -3.008431e+01
    endloop
  endfacet
  facet normal 6.087614e-01 0.000000e+00 -7.933533e-01
    outer loop
      vertex   -2.066568e+01 8.600000e+00 -3.008431e+01
      vertex   -2.066568e+01 1.210000e+01 -3.008431e+01
      vertex   -2.050000e+01 8.600000e+00 -2.995718e+01
    endloop
  endfacet
  facet normal 6.087614e-01 0.000000e+00 -7.933533e-01
    outer loop
      vertex   -2.050000e+01 8.600000e+00 -2.995718e+01
      vertex   -2.066568e+01 1.210000e+01 -3.008431e+01
      vertex   -2.050000e+01 1.210000e+01 -2.995718e+01
    endloop
  endfacet
  facet normal 3.826834e-01 0.000000e+00 -9.238795e-01
    outer loop
      vertex   -2.050000e+01 8.600000e+00 -2.995718e+01
      vertex   -2.050000e+01 1.210000e+01 -2.995718e+01
      vertex   -2.030705e+01 8.600000e+00 -2.987726e+01
    endloop
  endfacet
  facet normal 3.826834e-01 0.000000e+00 -9.238795e-01
    outer loop
      vertex   -2.030705e+01 8.600000e+00 -2.987726e+01
      vertex   -2.050000e+01 1.210000e+01 -2.995718e+01
      vertex   -2.030705e+01 1.210000e+01 -2.987726e+01
    endloop
  endfacet
  facet normal 1.305262e-01 0.000000e+00 -9.914449e-01
    outer loop
      vertex   -2.030705e+01 8.600000e+00 -2.987726e+01
      vertex   -2.030705e+01 1.210000e+01 -2.987726e+01
      vertex   -2.010000e+01 8.600000e+00 -2.985000e+01
    endloop
  endfacet
  facet normal 1.305262e-01 0.000000e+00 -9.914449e-01
    outer loop
      vertex   -2.010000e+01 8.600000e+00 -2.985000e+01
      vertex   -2.030705e+01 1.210000e+01 -2.987726e+01
      vertex   -2.010000e+01 1.210000e+01 -2.985000e+01
    endloop
  endfacet
  facet normal -1.305262e-01 0.000000e+00 -9.914449e-01
    outer loop
      vertex   -2.010000e+01 8.600000e+00 -2.985000e+01
      vertex   -2.010000e+01 1.210000e+01 -2.985000e+01
      vertex   -1.989294e+01 8.600000e+00 -2.987726e+01
    endloop
  endfacet
  facet normal -1.305262e-01 0.000000e+00 -9.914449e-01
    outer loop
      vertex   -1.989294e+01 8.600000e+00 -2.987726e+01
      vertex   -2.010000e+01 1.210000e+01 -2.985000e+01
      vertex   -1.989294e+01 1.210000e+01 -2.987726e+01
    endloop
  endfacet
  facet normal -3.826834e-01 0.000000e+00 -9.238795e-01
    outer loop
      vertex   -1.989294e+01 8.600000e+00 -2.987726e+01
      vertex   -1.989294e+01 1.210000e+01 -2.987726e+01
      vertex   -1.970000e+01 8.600000e+00 -2.995718e+01
    endloop
  endfacet
  facet normal -3.826834e-01 0.000000e+00 -9.238795e-01
    outer loop
      vertex   -1.970000e+01 8.600000e+00 -2.995718e+01
      vertex   -1.989294e+01 1.210000e+01 -2.987726e+01
      vertex   -1.970000e+01 1.210000e+01 -2.995718e+01
    endloop
  endfacet
  facet normal -6.087614e-01 0.000000e+00 -7.933533e-01
    outer loop
      vertex   -1.970000e+01 8.600000e+00 -2.995718e+01
      vertex   -1.970000e+01 1.210000e+01 -2.995718e+01
      vertex   -1.953431e+01 8.600000e+00 -3.008431e+01
    endloop
  endfacet
  facet normal -6.087614e-01 0.000000e+00 -7.933533e-01
    outer loop
      vertex   -1.953431e+01 8.600000e+00 -3.008431e+01
      vertex   -1.970000e+01 1.210000e+01 -2.995718e+01
      vertex   -1.953431e+01 1.210000e+01 -3.008431e+01
    endloop
  endfacet
  facet normal -7.933533e-01 0.000000e+00 -6.087614e-01
    outer loop
      vertex   -1.953431e+01 8.600000e+00 -3.008431e+01
      vertex   -1.953431e+01 1.210000e+01 -3.008431e+01
      vertex   -1.940718e+01 8.600000e+00 -3.025000e+01
    endloop
  endfacet
  facet normal -7.933533e-01 0.000000e+00 -6.087614e-01
    outer loop
      vertex   -1.940718e+01 8.600000e+00 -3.025000e+01
      vertex   -1.953431e+01 1.210000e+01 -3.008431e+01
      vertex   -1.940718e+01 1.210000e+01 -3.025000e+01
    endloop
  endfacet
  facet normal -9.238795e-01 0.000000e+00 -3.826834e-01
    outer loop
      vertex   -1.940718e+01 8.600000e+00 -3.025000e+01
      vertex   -1.940718e+01 1.210000e+01 -3.025000e+01
      vertex   -1.932726e+01 8.600000e+00 -3.044294e+01
    endloop
  endfacet
  facet normal -9.238795e-01 0.000000e+00 -3.826834e-01
    outer loop
      vertex   -1.932726e+01 8.600000e+00 -3.044294e+01
      vertex   -1.940718e+01 1.210000e+01 -3.025000e+01
      vertex   -1.932726e+01 1.210000e+01 -3.044294e+01
    endloop
  endfacet
  facet normal -9.914449e-01 0.000000e+00 -1.305262e-01
    outer loop
      vertex   -1.932726e+01 8.600000e+00 -3.044294e+01
      vertex   -1.932726e+01 1.210000e+01 -3.044294e+01
      vertex   -1.930000e+01 8.600000e+00 -3.065000e+01
    endloop
  endfacet
  facet normal -9.914449e-01 0.000000e+00 -1.305262e-01
    outer loop
      vertex   -1.930000e+01 8.600000e+00 -3.065000e+01
      vertex   -1.932726e+01 1.210000e+01 -3.044294e+01
      vertex   -1.930000e+01 1.210000e+01 -3.065000e+01
    endloop
  endfacet
  facet normal -9.914449e-01 0.000000e+00 1.305262e-01
    outer loop
      vertex   -1.930000e+01 8.600000e+00 -3.065000e+01
      vertex   -1.930000e+01 1.210000e+01 -3.065000e+01
      vertex   -1.932726e+01 8.600000e+00 -3.085705e+01
    endloop
  endfacet
  facet normal -9.914449e-01 0.000000e+00 1.305262e-01
    outer loop
      vertex   -1.932726e+01 8.600000e+00 -3.085705e+01
      vertex   -1.930000e+01 1.210000e+01 -3.065000e+01
      vertex   -1.932726e+01 1.210000e+01 -3.085705e+01
    endloop
  endfacet
  facet normal -9.238795e-01 0.000000e+00 3.826834e-01
    outer loop
      vertex   -1.932726e+01 8.600000e+00 -3.085705e+01
      vertex   -1.932726e+01 1.210000e+01 -3.085705e+01
      vertex   -1.940718e+01 8.600000e+00 -3.105000e+01
    endloop
  endfacet
  facet normal -9.238795e-01 0.000000e+00 3.826834e-01
    outer loop
      vertex   -1.940718e+01 8.600000e+00 -3.105000e+01
      vertex   -1.932726e+01 1.210000e+01 -3.085705e+01
      vertex   -1.940718e+01 1.210000e+01 -3.105000e+01
    endloop
  endfacet
  facet normal -7.933533e-01 0.000000e+00 6.087614e-01
    outer loop
      vertex   -1.940718e+01 8.600000e+00 -3.105000e+01
      vertex   -1.940718e+01 1.210000e+01 -3.105000e+01
      vertex   -1.953431e+01 8.600000e+00 -3.121568e+01
    endloop
  endfacet
  facet normal -7.933533e-01 0.000000e+00 6.087614e-01
    outer loop
      vertex   -1.953431e+01 8.600000e+00 -3.121568e+01
      vertex   -1.940718e+01 1.210000e+01 -3.105000e+01
      vertex   -1.953431e+01 1.210000e+01 -3.121568e+01
    endloop
  endfacet
  facet normal -6.087614e-01 0.000000e+00 7.933533e-01
    outer loop
      vertex   -1.953431e+01 8.600000e+00 -3.121568e+01
      vertex   -1.953431e+01 1.210000e+01 -3.121568e+01
      vertex   -1.970000e+01 8.600000e+00 -3.134282e+01
    endloop
  endfacet
  facet normal -6.087614e-01 0.000000e+00 7.933533e-01
    outer loop
      vertex   -1.970000e+01 8.600000e+00 -3.134282e+01
      vertex   -1.953431e+01 1.210000e+01 -3.121568e+01
      vertex   -1.970000e+01 1.210000e+01 -3.134282e+01
    endloop
  endfacet
  facet normal -3.826834e-01 0.000000e+00 9.238795e-01
    outer loop
      vertex   -1.970000e+01 8.600000e+00 -3.134282e+01
      vertex   -1.970000e+01 1.210000e+01 -3.134282e+01
      vertex   -1.989294e+01 8.600000e+00 -3.142274e+01
    endloop
  endfacet
  facet normal -3.826834e-01 0.000000e+00 9.238795e-01
    outer loop
      vertex   -1.989294e+01 8.600000e+00 -3.142274e+01
      vertex   -1.970000e+01 1.210000e+01 -3.134282e+01
      vertex   -1.989294e+01 1.210000e+01 -3.142274e+01
    endloop
  endfacet
  facet normal -1.305262e-01 0.000000e+00 9.914449e-01
    outer loop
      vertex   -1.989294e+01 8.600000e+00 -3.142274e+01
      vertex   -1.989294e+01 1.210000e+01 -3.142274e+01
      vertex   -2.010000e+01 8.600000e+00 -3.145000e+01
    endloop
  endfacet
  facet normal -1.305262e-01 0.000000e+00 9.914449e-01
    outer loop
      vertex   -2.010000e+01 8.600000e+00 -3.145000e+01
      vertex   -1.989294e+01 1.210000e+01 -3.142274e+01
      vertex   -2.010000e+01 1.210000e+01 -3.145000e+01
    endloop
  endfacet
  facet normal 1.305262e-01 -0.000000e+00 9.914449e-01
    outer loop
      vertex   -2.010000e+01 8.600000e+00 -3.145000e+01
      vertex   -2.010000e+01 1.210000e+01 -3.145000e+01
      vertex   -2.030705e+01 8.600000e+00 -3.142274e+01
    endloop
  endfacet
  facet normal 1.305262e-01 -0.000000e+00 9.914449e-01
    outer loop
      vertex   -2.030705e+01 8.600000e+00 -3.142274e+01
      vertex   -2.010000e+01 1.210000e+01 -3.145000e+01
      vertex   -2.030705e+01 1.210000e+01 -3.142274e+01
    endloop
  endfacet
  facet normal 3.826834e-01 -0.000000e+00 9.238795e-01
    outer loop
      vertex   -2.030705e+01 8.600000e+00 -3.142274e+01
      vertex   -2.030705e+01 1.210000e+01 -3.142274e+01
      vertex   -2.050000e+01 8.600000e+00 -3.134282e+01
    endloop
  endfacet
  facet normal 3.826834e-01 -0.000000e+00 9.238795e-01
    outer loop
      vertex   -2.050000e+01 8.600000e+00 -3.134282e+01
      vertex   -2.030705e+01 1.210000e+01 -3.142274e+01
      vertex   -2.050000e+01 1.210000e+01 -3.134282e+01
    endloop
  endfacet
  facet normal 6.087614e-01 -0.000000e+00 7.933533e-01
    outer loop
      vertex   -2.050000e+01 8.600000e+00 -3.134282e+01
      vertex   -2.050000e+01 1.210000e+01 -3.134282e+01
      vertex   -2.066568e+01 8.600000e+00 -3.121568e+01
    endloop
  endfacet
  facet normal 6.087614e-01 -0.000000e+00 7.933533e-01
    outer loop
      vertex   -2.066568e+01 8.600000e+00 -3.121568e+01
      vertex   -2.050000e+01 1.210000e+01 -3.134282e+01
      vertex   -2.066568e+01 1.210000e+01 -3.121568e+01
    endloop
  endfacet
  facet normal 7.933533e-01 -0.000000e+00 6.087614e-01
    outer loop
      vertex   -2.066568e+01 8.600000e+00 -3.121568e+01
      vertex   -2.066568e+01 1.210000e+01 -3.121568e+01
      vertex   -2.079282e+01 8.600000e+00 -3.105000e+01
    endloop
  endfacet
  facet normal 7.933533e-01 -0.000000e+00 6.087614e-01
    outer loop
      vertex   -2.079282e+01 8.600000e+00 -3.105000e+01
      vertex   -2.066568e+01 1.210000e+01 -3.121568e+01
      vertex   -2.079282e+01 1.210000e+01 -3.105000e+01
    endloop
  endfacet
  facet normal 9.238795e-01 -0.000000e+00 3.826834e-01
    outer loop
      vertex   -2.079282e+01 8.600000e+00 -3.105000e+01
      vertex   -2.079282e+01 1.210000e+01 -3.105000e+01
      vertex   -2.087274e+01 8.600000e+00 -3.085705e+01
    endloop
  endfacet
  facet normal 9.238795e-01 -0.000000e+00 3.826834e-01
    outer loop
      vertex   -2.087274e+01 8.600000e+00 -3.085705e+01
      vertex   -2.079282e+01 1.210000e+01 -3.105000e+01
      vertex   -2.087274e+01 1.210000e+01 -3.085705e+01
    endloop
  endfacet
  facet normal -0.000000e+00 1.000000e+00 0.000000e+00
    outer loop
      vertex   -2.090000e+01 8.600000e+00 -3.065000e+01
      vertex   -2.087274e+01 8.600000e+00 -3.044294e+01
      vertex   -2.087274e+01 8.600000e+00 -3.085705e+01
    endloop
  endfacet
  facet normal -0.000000e+00 1.000000e+00 0.000000e+00
    outer loop
      vertex   -2.087274e+01 8.600000e+00 -3.085705e+01
      vertex   -2.087274e+01 8.600000e+00 -3.044294e+01
      vertex   -2.079282e+01 8.600000e+00 -3.105000e+01
    endloop
  endfacet
  facet normal 0.000000e+00 1.000000e+00 -0.000000e+00
    outer loop
      vertex   -2.079282e+01 8.600000e+00 -3.105000e+01
      vertex   -2.087274e+01 8.600000e+00 -3.044294e+01
      vertex   -2.079282e+01 8.600000e+00 -3.025000e+01
    endloop
  endfacet
  facet normal -0.000000e+00 1.000000e+00 0.000000e+00
    outer loop
      vertex   -2.079282e+01 8.600000e+00 -3.105000e+01
      vertex   -2.079282e+01 8.600000e+00 -3.025000e+01
      vertex   -2.066568e+01 8.600000e+00 -3.121568e+01
    endloop
  endfacet
  facet normal 0.000000e+00 1.000000e+00 -0.000000e+00
    outer loop
      vertex   -2.066568e+01 8.600000e+00 -3.121568e+01
      vertex   -2.079282e+01 8.600000e+00 -3.025000e+01
      vertex   -2.066568e+01 8.600000e+00 -3.008431e+01
    endloop
  endfacet
  facet normal -0.000000e+00 1.000000e+00 0.000000e+00
    outer loop
      vertex   -2.066568e+01 8.600000e+00 -3.121568e+01
      vertex   -2.066568e+01 8.600000e+00 -3.008431e+01
      vertex   -2.050000e+01 8.600000e+00 -3.134282e+01
    endloop
  endfacet
  facet normal 0.000000e+00 1.000000e+00 -0.000000e+00
    outer loop
      vertex   -2.050000e+01 8.600000e+00 -3.134282e+01
      vertex   -2.066568e+01 8.600000e+00 -3.008431e+01
      vertex   -2.050000e+01 8.600000e+00 -2.995718e+01
    endloop
  endfacet
  facet normal -0.000000e+00 1.000000e+00 0.000000e+00
    outer loop
      vertex   -2.050000e+01 8.600000e+00 -3.134282e+01
      vertex   -2.050000e+01 8.600000e+00 -2.995718e+01
      vertex   -2.030705e+01 8.600000e+00 -3.142274e+01
    endloop
  endfacet
  facet normal 0.000000e+00 1.000000e+00 -0.000000e+00
    outer loop
      vertex   -2.030705e+01 8.600000e+00 -3.142274e+01
      vertex   -2.050000e+01 8.600000e+00 -2.995718e+01
      vertex   -2.030705e+01 8.600000e+00 -2.987726e+01
    endloop
  endfacet
  facet normal -0.000000e+00 1.000000e+00 0.000000e+00
    outer loop
      vertex   -2.030705e+01 8.600000e+00 -3.142274e+01
      vertex   -2.030705e+01 8.600000e+00 -2.987726e+01
      vertex   -2.010000e+01 8.600000e+00 -3.145000e+01
    endloop
  endfacet
  facet normal 0.000000e+00 1.000000e+00 -0.000000e+00
    outer loop
      vertex   -2.010000e+01 8.600000e+00 -3.145000e+01
      vertex   -2.030705e+01 8.600000e+00 -2.987726e+01
      vertex   -2.010000e+01 8.600000e+00 -2.985000e+01
    endloop
  endfacet
  facet normal 0.000000e+00 1.000000e+00 0.000000e+00
    outer loop
      vertex   -2.010000e+01 8.600000e+00 -3.145000e+01
      vertex   -2.010000e+01 8.600000e+00 -2.985000e+01
      vertex   -1.989294e+01 8.600000e+00 -3.142274e+01
    endloop
  endfacet
  facet normal 0.000000e+00 1.000000e+00 -0.000000e+00
    outer loop
      vertex   -1.989294e+01 8.600000e+00 -3.142274e+01
      vertex   -2.010000e+01 8.600000e+00 -2.985000e+01
      vertex   -1.989294e+01 8.600000e+00 -2.987726e+01
    endloop
  endfacet
  facet normal 0.000000e+00 1.000000e+00 0.000000e+00
    outer loop
      vertex   -1.989294e+01 8.600000e+00 -3.142274e+01
      vertex   -1.989294e+01 8.600000e+00 -2.987726e+01
      vertex   -1.970000e+01 8.600000e+00 -3.134282e+01
    endloop
  endfacet
  facet normal 0.000000e+00 1.000000e+00 -0.000000e+00
    outer loop
      vertex   -1.970000e+01 8.600000e+00 -3.134282e+01
      vertex   -1.989294e+01 8.600000e+00 -2.987726e+01
      vertex   -1.970000e+01 8.600000e+00 -2.995718e+01
    endloop
  endfacet
  facet normal 0.000000e+00 1.000000e+00 0.000000e+00
    outer loop
      vertex   -1.970000e+01 8.600000e+00 -3.134282e+01
      vertex   -1.970000e+01 8.600000e+00 -2.995718e+01
      vertex   -1.953431e+01 8.600000e+00 -3.121568e+01
    endloop
  endfacet
  facet normal 0.000000e+00 1.000000e+00 -0.000000e+00
    outer loop
      vertex   -1.953431e+01 8.600000e+00 -3.121568e+01
      vertex   -1.970000e+01 8.600000e+00 -2.995718e+01
      vertex   -1.953431e+01 8.600000e+00 -3.008431e+01
    endloop
  endfacet
  facet normal 0.000000e+00 1.000000e+00 0.000000e+00
    outer loop
      vertex   -1.953431e+01 8.600000e+00 -3.121568e+01
      vertex   -1.953431e+01 8.600000e+00 -3.008431e+01
      vertex   -1.940718e+01 8.600000e+00 -3.105000e+01
    endloop
  endfacet
  facet normal 0.000000e+00 1.000000e+00 -0.000000e+00
    outer loop
      vertex   -1.940718e+01 8.600000e+00 -3.105000e+01
      vertex   -1.953431e+01 8.600000e+00 -3.008431e+01
      vertex   -1.940718e+01 8.600000e+00 -3.025000e+01
    endloop
  endfacet
  facet normal 0.000000e+00 1.000000e+00 0.000000e+00
    outer loop
      vertex   -1.940718e+01 8.600000e+00 -3.105000e+01
      vertex   -1.940718e+01 8.600000e+00 -3.025000e+01
      vertex   -1.932726e+01 8.600000e+00 -3.085705e+01
    endloop
  endfacet
  facet normal 0.000000e+00 1.000000e+00 -0.000000e+00
    outer loop
      vertex   -1.932726e+01 8.600000e+00 -3.085705e+01
      vertex   -1.940718e+01 8.600000e+00 -3.025000e+01
      vertex   -1.932726e+01 8.600000e+00 -3.044294e+01
    endloop
  endfacet
  facet normal 0.000000e+00 1.000000e+00 0.000000e+00
    outer loop
      vertex   -1.932726e+01 8.600000e+00 -3.085705e+01
      vertex   -1.932726e+01 8.600000e+00 -3.044294e+01
      vertex   -1.930000e+01 8.600000e+00 -3.065000e+01
    endloop
  endfacet
  facet normal 9.914449e-01 -0.000000e+00 1.305262e-01
    outer loop
      vertex   -1.837274e+01 8.600000e+00 -2.557055e+00
      vertex   -1.837274e+01 1.210000e+01 -2.557055e+00
      vertex   -1.840000e+01 8.600000e+00 -2.350000e+00
    endloop
  endfacet
  facet normal 9.914449e-01 -0.000000e+00 1.305262e-01
    outer loop
      vertex   -1.840000e+01 8.600000e+00 -2.350000e+00
      vertex   -1.837274e+01 1.210000e+01 -2.557055e+00
      vertex   -1.840000e+01 1.210000e+01 -2.350000e+00
    endloop
  endfacet
  facet normal 9.914449e-01 0.000000e+00 -1.305262e-01
    outer loop
      vertex   -1.840000e+01 8.600000e+00 -2.350000e+00
      vertex   -1.840000e+01 1.210000e+01 -2.350000e+00
      vertex   -1.837274e+01 8.600000e+00 -2.142945e+00
    endloop
  endfacet
  facet normal 9.914449e-01 0.000000e+00 -1.305262e-01
    outer loop
      vertex   -1.837274e+01 8.600000e+00 -2.142945e+00
      vertex   -1.840000e+01 1.210000e+01 -2.350000e+00
      vertex   -1.837274e+01 1.210000e+01 -2.142945e+00
    endloop
  endfacet
  facet normal 9.238795e-01 0.000000e+00 -3.826834e-01
    outer loop
      vertex   -1.837274e+01 8.600000e+00 -2.142945e+00
      vertex   -1.837274e+01 1.210000e+01 -2.142945e+00
      vertex   -1.829282e+01 8.600000e+00 -1.950000e+00
    endloop
  endfacet
  facet normal 9.238795e-01 0.000000e+00 -3.826834e-01
    outer loop
      vertex   -1.829282e+01 8.600000e+00 -1.950000e+00
      vertex   -1.837274e+01 1.210000e+01 -2.142945e+00
      vertex   -1.829282e+01 1.210000e+01 -1.950000e+00
    endloop
  endfacet
  facet normal 7.933533e-01 0.000000e+00 -6.087614e-01
    outer loop
      vertex   -1.829282e+01 8.600000e+00 -1.950000e+00
      vertex   -1.829282e+01 1.210000e+01 -1.950000e+00
      vertex   -1.816569e+01 8.600000e+00 -1.784315e+00
    endloop
  endfacet
  facet normal 7.933533e-01 0.000000e+00 -6.087614e-01
    outer loop
      vertex   -1.816569e+01 8.600000e+00 -1.784315e+00
      vertex   -1.829282e+01 1.210000e+01 -1.950000e+00
      vertex   -1.816569e+01 1.210000e+01 -1.784315e+00
    endloop
  endfacet
  facet normal 6.087614e-01 0.000000e+00 -7.933533e-01
    outer loop
      vertex   -1.816569e+01 8.600000e+00 -1.784315e+00
      vertex   -1.816569e+01 1.210000e+01 -1.784315e+00
      vertex   -1.800000e+01 8.600000e+00 -1.657180e+00
    endloop
  endfacet
  facet normal 6.087614e-01 0.000000e+00 -7.933533e-01
    outer loop
      vertex   -1.800000e+01 8.600000e+00 -1.657180e+00
      vertex   -1.816569e+01 1.210000e+01 -1.784315e+00
      vertex   -1.800000e+01 1.210000e+01 -1.657180e+00
    endloop
  endfacet
  facet normal 3.826834e-01 0.000000e+00 -9.238795e-01
    outer loop
      vertex   -1.800000e+01 8.600000e+00 -1.657180e+00
      vertex   -1.800000e+01 1.210000e+01 -1.657180e+00
      vertex   -1.780705e+01 8.600000e+00 -1.577259e+00
    endloop
  endfacet
  facet normal 3.826834e-01 0.000000e+00 -9.238795e-01
    outer loop
      vertex   -1.780705e+01 8.600000e+00 -1.577259e+00
      vertex   -1.800000e+01 1.210000e+01 -1.657180e+00
      vertex   -1.780705e+01 1.210000e+01 -1.577259e+00
    endloop
  endfacet
  facet normal 1.305262e-01 0.000000e+00 -9.914449e-01
    outer loop
      vertex   -1.780705e+01 8.600000e+00 -1.577259e+00
      vertex   -1.780705e+01 1.210000e+01 -1.577259e+00
      vertex   -1.760000e+01 8.600000e+00 -1.550000e+00
    endloop
  endfacet
  facet normal 1.305262e-01 0.000000e+00 -9.914449e-01
    outer loop
      vertex   -1.760000e+01 8.600000e+00 -1.550000e+00
      vertex   -1.780705e+01 1.210000e+01 -1.577259e+00
      vertex   -1.760000e+01 1.210000e+01 -1.550000e+00
    endloop
  endfacet
  facet normal -1.305262e-01 0.000000e+00 -9.914449e-01
    outer loop
      vertex   -1.760000e+01 8.600000e+00 -1.550000e+00
      vertex   -1.760000e+01 1.210000e+01 -1.550000e+00
      vertex   -1.739294e+01 8.600000e+00 -1.577259e+00
    endloop
  endfacet
  facet normal -1.305262e-01 0.000000e+00 -9.914449e-01
    outer loop
      vertex   -1.739294e+01 8.600000e+00 -1.577259e+00
      vertex   -1.760000e+01 1.210000e+01 -1.550000e+00
      vertex   -1.739294e+01 1.210000e+01 -1.577259e+00
    endloop
  endfacet
  facet normal -3.826834e-01 0.000000e+00 -9.238795e-01
    outer loop
      vertex   -1.739294e+01 8.600000e+00 -1.577259e+00
      vertex   -1.739294e+01 1.210000e+01 -1.577259e+00
      vertex   -1.720000e+01 8.600000e+00 -1.657180e+00
    endloop
  endfacet
  facet normal -3.826834e-01 0.000000e+00 -9.238795e-01
    outer loop
      vertex   -1.720000e+01 8.600000e+00 -1.657180e+00
      vertex   -1.739294e+01 1.210000e+01 -1.577259e+00
      vertex   -1.720000e+01 1.210000e+01 -1.657180e+00
    endloop
  endfacet
  facet normal -6.087614e-01 0.000000e+00 -7.933533e-01
    outer loop
      vertex   -1.720000e+01 8.600000e+00 -1.657180e+00
      vertex   -1.720000e+01 1.210000e+01 -1.657180e+00
      vertex   -1.703431e+01 8.600000e+00 -1.784315e+00
    endloop
  endfacet
  facet normal -6.087614e-01 0.000000e+00 -7.933533e-01
    outer loop
      vertex   -1.703431e+01 8.600000e+00 -1.784315e+00
      vertex   -1.720000e+01 1.210000e+01 -1.657180e+00
      vertex   -1.703431e+01 1.210000e+01 -1.784315e+00
    endloop
  endfacet
  facet normal -7.933533e-01 0.000000e+00 -6.087614e-01
    outer loop
      vertex   -1.703431e+01 8.600000e+00 -1.784315e+00
      vertex   -1.703431e+01 1.210000e+01 -1.784315e+00
      vertex   -1.690718e+01 8.600000e+00 -1.950000e+00
    endloop
  endfacet
  facet normal -7.933533e-01 0.000000e+00 -6.087614e-01
    outer loop
      vertex   -1.690718e+01 8.600000e+00 -1.950000e+00
      vertex   -1.703431e+01 1.210000e+01 -1.784315e+00
      vertex   -1.690718e+01 1.210000e+01 -1.950000e+00
    endloop
  endfacet
  facet normal -9.238795e-01 0.000000e+00 -3.826834e-01
    outer loop
      vertex   -1.690718e+01 8.600000e+00 -1.950000e+00
      vertex   -1.690718e+01 1.210000e+01 -1.950000e+00
      vertex   -1.682726e+01 8.600000e+00 -2.142945e+00
    endloop
  endfacet
  facet normal -9.238795e-01 0.000000e+00 -3.826834e-01
    outer loop
      vertex   -1.682726e+01 8.600000e+00 -2.142945e+00
      vertex   -1.690718e+01 1.210000e+01 -1.950000e+00
      vertex   -1.682726e+01 1.210000e+01 -2.142945e+00
    endloop
  endfacet
  facet normal -9.914449e-01 0.000000e+00 -1.305262e-01
    outer loop
      vertex   -1.682726e+01 8.600000e+00 -2.142945e+00
      vertex   -1.682726e+01 1.210000e+01 -2.142945e+00
      vertex   -1.680000e+01 8.600000e+00 -2.350000e+00
    endloop
  endfacet
  facet normal -9.914449e-01 0.000000e+00 -1.305262e-01
    outer loop
      vertex   -1.680000e+01 8.600000e+00 -2.350000e+00
      vertex   -1.682726e+01 1.210000e+01 -2.142945e+00
      vertex   -1.680000e+01 1.210000e+01 -2.350000e+00
    endloop
  endfacet
  facet normal -9.914449e-01 0.000000e+00 1.305262e-01
    outer loop
      vertex   -1.680000e+01 8.600000e+00 -2.350000e+00
      vertex   -1.680000e+01 1.210000e+01 -2.350000e+00
      vertex   -1.682726e+01 8.600000e+00 -2.557055e+00
    endloop
  endfacet
  facet normal -9.914449e-01 0.000000e+00 1.305262e-01
    outer loop
      vertex   -1.682726e+01 8.600000e+00 -2.557055e+00
      vertex   -1.680000e+01 1.210000e+01 -2.350000e+00
      vertex   -1.682726e+01 1.210000e+01 -2.557055e+00
    endloop
  endfacet
  facet normal -9.238795e-01 0.000000e+00 3.826834e-01
    outer loop
      vertex   -1.682726e+01 8.600000e+00 -2.557055e+00
      vertex   -1.682726e+01 1.210000e+01 -2.557055e+00
      vertex   -1.690718e+01 8.600000e+00 -2.750000e+00
    endloop
  endfacet
  facet normal -9.238795e-01 0.000000e+00 3.826834e-01
    outer loop
      vertex   -1.690718e+01 8.600000e+00 -2.750000e+00
      vertex   -1.682726e+01 1.210000e+01 -2.557055e+00
      vertex   -1.690718e+01 1.210000e+01 -2.750000e+00
    endloop
  endfacet
  facet normal -7.933533e-01 0.000000e+00 6.087614e-01
    outer loop
      vertex   -1.690718e+01 8.600000e+00 -2.750000e+00
      vertex   -1.690718e+01 1.210000e+01 -2.750000e+00
      vertex   -1.703431e+01 8.600000e+00 -2.915685e+00
    endloop
  endfacet
  facet normal -7.933533e-01 0.000000e+00 6.087614e-01
    outer loop
      vertex   -1.703431e+01 8.600000e+00 -2.915685e+00
      vertex   -1.690718e+01 1.210000e+01 -2.750000e+00
      vertex   -1.703431e+01 1.210000e+01 -2.915685e+00
    endloop
  endfacet
  facet normal -6.087614e-01 0.000000e+00 7.933533e-01
    outer loop
      vertex   -1.703431e+01 8.600000e+00 -2.915685e+00
      vertex   -1.703431e+01 1.210000e+01 -2.915685e+00
      vertex   -1.720000e+01 8.600000e+00 -3.042820e+00
    endloop
  endfacet
  facet normal -6.087614e-01 0.000000e+00 7.933533e-01
    outer loop
      vertex   -1.720000e+01 8.600000e+00 -3.042820e+00
      vertex   -1.703431e+01 1.210000e+01 -2.915685e+00
      vertex   -1.720000e+01 1.210000e+01 -3.042820e+00
    endloop
  endfacet
  facet normal -3.826834e-01 0.000000e+00 9.238795e-01
    outer loop
      vertex   -1.720000e+01 8.600000e+00 -3.042820e+00
      vertex   -1.720000e+01 1.210000e+01 -3.042820e+00
      vertex   -1.739294e+01 8.600000e+00 -3.122741e+00
    endloop
  endfacet
  facet normal -3.826834e-01 0.000000e+00 9.238795e-01
    outer loop
      vertex   -1.739294e+01 8.600000e+00 -3.122741e+00
      vertex   -1.720000e+01 1.210000e+01 -3.042820e+00
      vertex   -1.739294e+01 1.210000e+01 -3.122741e+00
    endloop
  endfacet
  facet normal -1.305262e-01 0.000000e+00 9.914449e-01
    outer loop
      vertex   -1.739294e+01 8.600000e+00 -3.122741e+00
      vertex   -1.739294e+01 1.210000e+01 -3.122741e+00
      vertex   -1.760000e+01 8.600000e+00 -3.150000e+00
    endloop
  endfacet
  facet normal -1.305262e-01 0.000000e+00 9.914449e-01
    outer loop
      vertex   -1.760000e+01 8.600000e+00 -3.150000e+00
      vertex   -1.739294e+01 1.210000e+01 -3.122741e+00
      vertex   -1.760000e+01 1.210000e+01 -3.150000e+00
    endloop
  endfacet
  facet normal 1.305262e-01 -0.000000e+00 9.914449e-01
    outer loop
      vertex   -1.760000e+01 8.600000e+00 -3.150000e+00
      vertex   -1.760000e+01 1.210000e+01 -3.150000e+00
      vertex   -1.780705e+01 8.600000e+00 -3.122741e+00
    endloop
  endfacet
  facet normal 1.305262e-01 -0.000000e+00 9.914449e-01
    outer loop
      vertex   -1.780705e+01 8.600000e+00 -3.122741e+00
      vertex   -1.760000e+01 1.210000e+01 -3.150000e+00
      vertex   -1.780705e+01 1.210000e+01 -3.122741e+00
    endloop
  endfacet
  facet normal 3.826834e-01 -0.000000e+00 9.238795e-01
    outer loop
      vertex   -1.780705e+01 8.600000e+00 -3.122741e+00
      vertex   -1.780705e+01 1.210000e+01 -3.122741e+00
      vertex   -1.800000e+01 8.600000e+00 -3.042820e+00
    endloop
  endfacet
  facet normal 3.826834e-01 -0.000000e+00 9.238795e-01
    outer loop
      vertex   -1.800000e+01 8.600000e+00 -3.042820e+00
      vertex   -1.780705e+01 1.210000e+01 -3.122741e+00
      vertex   -1.800000e+01 1.210000e+01 -3.042820e+00
    endloop
  endfacet
  facet normal 6.087614e-01 -0.000000e+00 7.933533e-01
    outer loop
      vertex   -1.800000e+01 8.600000e+00 -3.042820e+00
      vertex   -1.800000e+01 1.210000e+01 -3.042820e+00
      vertex   -1.816569e+01 8.600000e+00 -2.915685e+00
    endloop
  endfacet
  facet normal 6.087614e-01 -0.000000e+00 7.933533e-01
    outer loop
      vertex   -1.816569e+01 8.600000e+00 -2.915685e+00
      vertex   -1.800000e+01 1.210000e+01 -3.042820e+00
      vertex   -1.816569e+01 1.210000e+01 -2.915685e+00
    endloop
  endfacet
  facet normal 7.933533e-01 -0.000000e+00 6.087614e-01
    outer loop
      vertex   -1.816569e+01 8.600000e+00 -2.915685e+00
      vertex   -1.816569e+01 1.210000e+01 -2.915685e+00
      vertex   -1.829282e+01 8.600000e+00 -2.750000e+00
    endloop
  endfacet
  facet normal 7.933533e-01 -0.000000e+00 6.087614e-01
    outer loop
      vertex   -1.829282e+01 8.600000e+00 -2.750000e+00
      vertex   -1.816569e+01 1.210000e+01 -2.915685e+00
      vertex   -1.829282e+01 1.210000e+01 -2.750000e+00
    endloop
  endfacet
  facet normal 9.238795e-01 -0.000000e+00 3.826834e-01
    outer loop
      vertex   -1.829282e+01 8.600000e+00 -2.750000e+00
      vertex   -1.829282e+01 1.210000e+01 -2.750000e+00
      vertex   -1.837274e+01 8.600000e+00 -2.557055e+00
    endloop
  endfacet
  facet normal 9.238795e-01 -0.000000e+00 3.826834e-01
    outer loop
      vertex   -1.837274e+01 8.600000e+00 -2.557055e+00
      vertex   -1.829282e+01 1.210000e+01 -2.750000e+00
      vertex   -1.837274e+01 1.210000e+01 -2.557055e+00
    endloop
  endfacet
  facet normal -0.000000e+00 1.000000e+00 0.000000e+00
    outer loop
      vertex   -1.840000e+01 8.600000e+00 -2.350000e+00
      vertex   -1.837274e+01 8.600000e+00 -2.142945e+00
      vertex   -1.837274e+01 8.600000e+00 -2.557055e+00
    endloop
  endfacet
  facet normal -0.000000e+00 1.000000e+00 0.000000e+00
    outer loop
      vertex   -1.837274e+01 8.600000e+00 -2.557055e+00
      vertex   -1.837274e+01 8.600000e+00 -2.142945e+00
      vertex   -1.829282e+01 8.600000e+00 -2.750000e+00
    endloop
  endfacet
  facet normal 0.000000e+00 1.000000e+00 -0.000000e+00
    outer loop
      vertex   -1.829282e+01 8.600000e+00 -2.750000e+00
      vertex   -1.837274e+01 8.600000e+00 -2.142945e+00
      vertex   -1.829282e+01 8.600000e+00 -1.950000e+00
    endloop
  endfacet
  facet normal -0.000000e+00 1.000000e+00 0.000000e+00
    outer loop
      vertex   -1.829282e+01 8.600000e+00 -2.750000e+00
      vertex   -1.829282e+01 8.600000e+00 -1.950000e+00
      vertex   -1.816569e+01 8.600000e+00 -2.915685e+00
    endloop
  endfacet
  facet normal 0.000000e+00 1.000000e+00 -0.000000e+00
    outer loop
      vertex   -1.816569e+01 8.600000e+00 -2.915685e+00
      vertex   -1.829282e+01 8.600000e+00 -1.950000e+00
      vertex   -1.816569e+01 8.600000e+00 -1.784315e+00
    endloop
  endfacet
  facet normal -0.000000e+00 1.000000e+00 0.000000e+00
    outer loop
      vertex   -1.816569e+01 8.600000e+00 -2.915685e+00
      vertex   -1.816569e+01 8.600000e+00 -1.784315e+00
      vertex   -1.800000e+01 8.600000e+00 -3.042820e+00
    endloop
  endfacet
  facet normal 0.000000e+00 1.000000e+00 -0.000000e+00
    outer loop
      vertex   -1.800000e+01 8.600000e+00 -3.042820e+00
      vertex   -1.816569e+01 8.600000e+00 -1.784315e+00
      vertex   -1.800000e+01 8.600000e+00 -1.657180e+00
    endloop
  endfacet
  facet normal -0.000000e+00 1.000000e+00 0.000000e+00
    outer loop
      vertex   -1.800000e+01 8.600000e+00 -3.042820e+00
      vertex   -1.800000e+01 8.600000e+00 -1.657180e+00
      vertex   -1.780705e+01 8.600000e+00 -3.122741e+00
    endloop
  endfacet
  facet normal 0.000000e+00 1.000000e+00 -0.000000e+00
    outer loop
      vertex   -1.780705e+01 8.600000e+00 -3.122741e+00
      vertex   -1.800000e+01 8.600000e+00 -1.657180e+00
      vertex   -1.780705e+01 8.600000e+00 -1.577259e+00
    endloop
  endfacet
  facet normal -0.000000e+00 1.000000e+00 0.000000e+00
    outer loop
      vertex   -1.780705e+01 8.600000e+00 -3.122741e+00
      vertex   -1.780705e+01 8.600000e+00 -1.577259e+00
      vertex   -1.760000e+01 8.600000e+00 -3.150000e+00
    endloop
  endfacet
  facet normal 0.000000e+00 1.000000e+00 -0.000000e+00
    outer loop
      vertex   -1.760000e+01 8.600000e+00 -3.150000e+00
      vertex   -1.780705e+01 8.600000e+00 -1.577259e+00
      vertex   -1.760000e+01 8.600000e+00 -1.550000e+00
    endloop
  endfacet
  facet normal 0.000000e+00 1.000000e+00 0.000000e+00
    outer loop
      vertex   -1.760000e+01 8.600000e+00 -3.150000e+00
      vertex   -1.760000e+01 8.600000e+00 -1.550000e+00
      vertex   -1.739294e+01 8.600000e+00 -3.122741e+00
    endloop
  endfacet
  facet normal 0.000000e+00 1.000000e+00 -0.000000e+00
    outer loop
      vertex   -1.739294e+01 8.600000e+00 -3.122741e+00
      vertex   -1.760000e+01 8.600000e+00 -1.550000e+00
      vertex   -1.739294e+01 8.600000e+00 -1.577259e+00
    endloop
  endfacet
  facet normal 0.000000e+00 1.000000e+00 0.000000e+00
    outer loop
      vertex   -1.739294e+01 8.600000e+00 -3.122741e+00
      vertex   -1.739294e+01 8.600000e+00 -1.577259e+00
      vertex   -1.720000e+01 8.600000e+00 -3.042820e+00
    endloop
  endfacet
  facet normal 0.000000e+00 1.000000e+00 -0.000000e+00
    outer loop
      vertex   -1.720000e+01 8.600000e+00 -3.042820e+00
      vertex   -1.739294e+01 8.600000e+00 -1.577259e+00
      vertex   -1.720000e+01 8.600000e+00 -1.657180e+00
    endloop
  endfacet
  facet normal 0.000000e+00 1.000000e+00 0.000000e+00
    outer loop
      vertex   -1.720000e+01 8.600000e+00 -3.042820e+00
      vertex   -1.720000e+01 8.600000e+00 -1.657180e+00
      vertex   -1.703431e+01 8.600000e+00 -2.915685e+00
    endloop
  endfacet
  facet normal 0.000000e+00 1.000000e+00 -0.000000e+00
    outer loop
      vertex   -1.703431e+01 8.600000e+00 -2.915685e+00
      vertex   -1.720000e+01 8.600000e+00 -1.657180e+00
      vertex   -1.703431e+01 8.600000e+00 -1.784315e+00
    endloop
  endfacet
  facet normal 0.000000e+00 1.000000e+00 0.000000e+00
    outer loop
      vertex   -1.703431e+01 8.600000e+00 -2.915685e+00
      vertex   -1.703431e+01 8.600000e+00 -1.784315e+00
      vertex   -1.690718e+01 8.600000e+00 -2.750000e+00
    endloop
  endfacet
  facet normal 0.000000e+00 1.000000e+00 -0.000000e+00
    outer loop
      vertex   -1.690718e+01 8.600000e+00 -2.750000e+00
      vertex   -1.703431e+01 8.600000e+00 -1.784315e+00
      vertex   -1.690718e+01 8.600000e+00 -1.950000e+00
    endloop
  endfacet
  facet normal 0.000000e+00 1.000000e+00 0.000000e+00
    outer loop
      vertex   -1.690718e+01 8.600000e+00 -2.750000e+00
      vertex   -1.690718e+01 8.600000e+00 -1.950000e+00
      vertex   -1.682726e+01 8.600000e+00 -2.557055e+00
    endloop
  endfacet
  facet normal 0.000000e+00 1.000000e+00 -0.000000e+00
    outer loop
      vertex   -1.682726e+01 8.600000e+00 -2.557055e+00
      vertex   -1.690718e+01 8.600000e+00 -1.950000e+00
      vertex   -1.682726e+01 8.600000e+00 -2.142945e+00
    endloop
  endfacet
  facet normal 0.000000e+00 1.000000e+00 0.000000e+00
    outer loop
      vertex   -1.682726e+01 8.600000e+00 -2.557055e+00
      vertex   -1.682726e+01 8.600000e+00 -2.142945e+00
      vertex   -1.680000e+01 8.600000e+00 -2.350000e+00
    endloop
  endfacet
  facet normal 0.000000e+00 1.000000e+00 0.000000e+00
    outer loop
      vertex   -1.837274e+01 1.210000e+01 -2.557055e+00
      vertex   -2.360000e+01 1.210000e+01 -4.700000e+00
      vertex   -1.840000e+01 1.210000e+01 -2.350000e+00
    endloop
  endfacet
  facet normal 0.000000e+00 1.000000e+00 0.000000e+00
    outer loop
      vertex   -1.840000e+01 1.210000e+01 -2.350000e+00
      vertex   -2.360000e+01 1.210000e+01 -4.700000e+00
      vertex   -2.360000e+01 1.210000e+01 0.000000e+00
    endloop
  endfacet
  facet normal 0.000000e+00 1.000000e+00 -0.000000e+00
    outer loop
      vertex   -1.840000e+01 1.210000e+01 -2.350000e+00
      vertex   -2.360000e+01 1.210000e+01 0.000000e+00
      vertex   -1.837274e+01 1.210000e+01 -2.142945e+00
    endloop
  endfacet
  facet normal 0.000000e+00 1.000000e+00 -0.000000e+00
    outer loop
      vertex   -1.837274e+01 1.210000e+01 -2.142945e+00
      vertex   -2.360000e+01 1.210000e+01 0.000000e+00
      vertex   -1.829282e+01 1.210000e+01 -1.950000e+00
    endloop
  endfacet
  facet normal 0.000000e+00 1.000000e+00 -0.000000e+00
    outer loop
      vertex   -1.829282e+01 1.210000e+01 -1.950000e+00
      vertex   -2.360000e+01 1.210000e+01 0.000000e+00
      vertex   -1.816569e+01 1.210000e+01 -1.784315e+00
    endloop
  endfacet
  facet normal 0.000000e+00 1.000000e+00 -0.000000e+00
    outer loop
      vertex   -1.816569e+01 1.210000e+01 -1.784315e+00
      vertex   -2.360000e+01 1.210000e+01 0.000000e+00
      vertex   -1.800000e+01 1.210000e+01 -1.657180e+00
    endloop
  endfacet
  facet normal 0.000000e+00 1.000000e+00 -0.000000e+00
    outer loop
      vertex   -1.800000e+01 1.210000e+01 -1.657180e+00
      vertex   -2.360000e+01 1.210000e+01 0.000000e+00
      vertex   -1.780705e+01 1.210000e+01 -1.577259e+00
    endloop
  endfacet
  facet normal 0.000000e+00 1.000000e+00 -0.000000e+00
    outer loop
      vertex   -1.780705e+01 1.210000e+01 -1.577259e+00
      vertex   -2.360000e+01 1.210000e+01 0.000000e+00
      vertex   -1.760000e+01 1.210000e+01 -1.550000e+00
    endloop
  endfacet
  facet normal 0.000000e+00 1.000000e+00 -0.000000e+00
    outer loop
      vertex   -1.760000e+01 1.210000e+01 -1.550000e+00
      vertex   -2.360000e+01 1.210000e+01 0.000000e+00
      vertex   -1.160000e+01 1.210000e+01 0.000000e+00
    endloop
  endfacet
  facet normal -0.000000e+00 1.000000e+00 0.000000e+00
    outer loop
      vertex   -1.760000e+01 1.210000e+01 -1.550000e+00
      vertex   -1.160000e+01 1.210000e+01 0.000000e+00
      vertex   -1.739294e+01 1.210000e+01 -1.577259e+00
    endloop
  endfacet
  facet normal -0.000000e+00 1.000000e+00 0.000000e+00
    outer loop
      vertex   -1.739294e+01 1.210000e+01 -1.577259e+00
      vertex   -1.160000e+01 1.210000e+01 0.000000e+00
      vertex   -1.720000e+01 1.210000e+01 -1.657180e+00
    endloop
  endfacet
  facet normal -0.000000e+00 1.000000e+00 0.000000e+00
    outer loop
      vertex   -1.720000e+01 1.210000e+01 -1.657180e+00
      vertex   -1.160000e+01 1.210000e+01 0.000000e+00
      vertex   -1.703431e+01 1.210000e+01 -1.784315e+00
    endloop
  endfacet
  facet normal -0.000000e+00 1.000000e+00 0.000000e+00
    outer loop
      vertex   -1.703431e+01 1.210000e+01 -1.784315e+00
      vertex   -1.160000e+01 1.210000e+01 0.000000e+00
      vertex   -1.690718e+01 1.210000e+01 -1.950000e+00
    endloop
  endfacet
  facet normal -0.000000e+00 1.000000e+00 0.000000e+00
    outer loop
      vertex   -1.690718e+01 1.210000e+01 -1.950000e+00
      vertex   -1.160000e+01 1.210000e+01 0.000000e+00
      vertex   -1.682726e+01 1.210000e+01 -2.142945e+00
    endloop
  endfacet
  facet normal -0.000000e+00 1.000000e+00 0.000000e+00
    outer loop
      vertex   -1.682726e+01 1.210000e+01 -2.142945e+00
      vertex   -1.160000e+01 1.210000e+01 0.000000e+00
      vertex   -1.680000e+01 1.210000e+01 -2.350000e+00
    endloop
  endfacet
  facet normal -0.000000e+00 1.000000e+00 0.000000e+00
    outer loop
      vertex   -1.680000e+01 1.210000e+01 -2.350000e+00
      vertex   -1.160000e+01 1.210000e+01 0.000000e+00
      vertex   -1.160000e+01 1.210000e+01 -4.700000e+00
    endloop
  endfacet
  facet normal 0.000000e+00 1.000000e+00 0.000000e+00
    outer loop
      vertex   -1.680000e+01 1.210000e+01 -2.350000e+00
      vertex   -1.160000e+01 1.210000e+01 -4.700000e+00
      vertex   -1.682726e+01 1.210000e+01 -2.557055e+00
    endloop
  endfacet
  facet normal 0.000000e+00 1.000000e+00 0.000000e+00
    outer loop
      vertex   -1.682726e+01 1.210000e+01 -2.557055e+00
      vertex   -1.160000e+01 1.210000e+01 -4.700000e+00
      vertex   -1.690718e+01 1.210000e+01 -2.750000e+00
    endloop
  endfacet
  facet normal 0.000000e+00 1.000000e+00 0.000000e+00
    outer loop
      vertex   -1.690718e+01 1.210000e+01 -2.750000e+00
      vertex   -1.160000e+01 1.210000e+01 -4.700000e+00
      vertex   -1.703431e+01 1.210000e+01 -2.915685e+00
    endloop
  endfacet
  facet normal 0.000000e+00 1.000000e+00 0.000000e+00
    outer loop
      vertex   -1.703431e+01 1.210000e+01 -2.915685e+00
      vertex   -1.160000e+01 1.210000e+01 -4.700000e+00
      vertex   -1.720000e+01 1.210000e+01 -3.042820e+00
    endloop
  endfacet
  facet normal 0.000000e+00 1.000000e+00 0.000000e+00
    outer loop
      vertex   -1.720000e+01 1.210000e+01 -3.042820e+00
      vertex   -1.160000e+01 1.210000e+01 -4.700000e+00
      vertex   -1.739294e+01 1.210000e+01 -3.122741e+00
    endloop
  endfacet
  facet normal 0.000000e+00 1.000000e+00 0.000000e+00
    outer loop
      vertex   -1.739294e+01 1.210000e+01 -3.122741e+00
      vertex   -1.160000e+01 1.210000e+01 -4.700000e+00
      vertex   -1.760000e+01 1.210000e+01 -3.150000e+00
    endloop
  endfacet
  facet normal 0.000000e+00 1.000000e+00 0.000000e+00
    outer loop
      vertex   -1.760000e+01 1.210000e+01 -3.150000e+00
      vertex   -1.160000e+01 1.210000e+01 -4.700000e+00
      vertex   -2.360000e+01 1.210000e+01 -4.700000e+00
    endloop
  endfacet
  facet normal 0.000000e+00 1.000000e+00 0.000000e+00
    outer loop
      vertex   -1.760000e+01 1.210000e+01 -3.150000e+00
      vertex   -2.360000e+01 1.210000e+01 -4.700000e+00
      vertex   -1.780705e+01 1.210000e+01 -3.122741e+00
    endloop
  endfacet
  facet normal 0.000000e+00 1.000000e+00 0.000000e+00
    outer loop
      vertex   -1.780705e+01 1.210000e+01 -3.122741e+00
      vertex   -2.360000e+01 1.210000e+01 -4.700000e+00
      vertex   -1.800000e+01 1.210000e+01 -3.042820e+00
    endloop
  endfacet
  facet normal 0.000000e+00 1.000000e+00 0.000000e+00
    outer loop
      vertex   -1.800000e+01 1.210000e+01 -3.042820e+00
      vertex   -2.360000e+01 1.210000e+01 -4.700000e+00
      vertex   -1.816569e+01 1.210000e+01 -2.915685e+00
    endloop
  endfacet
  facet normal 0.000000e+00 1.000000e+00 0.000000e+00
    outer loop
      vertex   -1.816569e+01 1.210000e+01 -2.915685e+00
      vertex   -2.360000e+01 1.210000e+01 -4.700000e+00
      vertex   -1.829282e+01 1.210000e+01 -2.750000e+00
    endloop
  endfacet
  facet normal 0.000000e+00 1.000000e+00 0.000000e+00
    outer loop
      vertex   -1.829282e+01 1.210000e+01 -2.750000e+00
      vertex   -2.360000e+01 1.210000e+01 -4.700000e+00
      vertex   -1.837274e+01 1.210000e+01 -2.557055e+00
    endloop
  endfacet
  facet normal 0.000000e+00 0.000000e+00 -1.000000e+00
    outer loop
      vertex   -2.360000e+01 1.210000e+01 -4.700000e+00
      vertex   -1.160000e+01 1.210000e+01 -4.700000e+00
      vertex   -2.360000e+01 0.000000e+00 -4.700000e+00
    endloop
  endfacet
  facet normal 0.000000e+00 0.000000e+00 -1.000000e+00
    outer loop
      vertex   -2.360000e+01 0.000000e+00 -4.700000e+00
      vertex   -1.160000e+01 1.210000e+01 -4.700000e+00
      vertex   -1.160000e+01 0.000000e+00 -4.700000e+00
    endloop
  endfacet
  facet normal 1.000000e+00 3.634430e-08 0.000000e+00
    outer loop
      vertex   -1.160000e+01 1.210000e+01 0.000000e+00
      vertex   -1.160000e+01 0.000000e+00 0.000000e+00
      vertex   -1.160000e+01 1.210000e+01 -4.700000e+00
    endloop
  endfacet
  facet normal 1.000000e+00 3.634430e-08 0.000000e+00
    outer loop
      vertex   -1.160000e+01 1.210000e+01 -4.700000e+00
      vertex   -1.160000e+01 0.000000e+00 0.000000e+00
      vertex   -1.160000e+01 0.000000e+00 -4.700000e+00
    endloop
  endfacet
  facet normal -1.000000e+00 -5.451646e-09 3.739699e-15
    outer loop
      vertex   -2.860000e+01 1.210000e+01 -3.350000e+01
      vertex   -2.860000e+01 0.000000e+00 -3.350000e+01
      vertex   -2.860000e+01 1.210000e+01 -2.780000e+01
    endloop
  endfacet
  facet normal -1.000000e+00 -5.451645e-09 0.000000e+00
    outer loop
      vertex   -2.860000e+01 1.210000e+01 -2.780000e+01
      vertex   -2.860000e+01 0.000000e+00 -3.350000e+01
      vertex   -2.860000e+01 0.000000e+00 -2.780000e+01
    endloop
  endfacet
  facet normal -0.000000e+00 0.000000e+00 1.000000e+00
    outer loop
      vertex   -1.160000e+01 1.210000e+01 -3.250000e+01
      vertex   -1.160000e+01 0.000000e+00 -3.250000e+01
      vertex   -1.000000e+00 1.210000e+01 -3.250000e+01
    endloop
  endfacet
  facet normal 0.000000e+00 0.000000e+00 1.000000e+00
    outer loop
      vertex   -1.000000e+00 1.210000e+01 -3.250000e+01
      vertex   -1.160000e+01 0.000000e+00 -3.250000e+01
      vertex   -1.000000e+00 0.000000e+00 -3.250000e+01
    endloop
  endfacet
  facet normal 1.000000e+00 3.634430e-08 0.000000e+00
    outer loop
      vertex   -1.160000e+01 1.210000e+01 -2.780000e+01
      vertex   -1.160000e+01 0.000000e+00 -2.780000e+01
      vertex   -1.160000e+01 1.210000e+01 -3.250000e+01
    endloop
  endfacet
  facet normal 1.000000e+00 3.634430e-08 0.000000e+00
    outer loop
      vertex   -1.160000e+01 1.210000e+01 -3.250000e+01
      vertex   -1.160000e+01 0.000000e+00 -2.780000e+01
      vertex   -1.160000e+01 0.000000e+00 -3.250000e+01
    endloop
  endfacet
  facet normal -0.000000e+00 0.000000e+00 1.000000e+00
    outer loop
      vertex   -2.860000e+01 1.210000e+01 -2.780000e+01
      vertex   -2.860000e+01 0.000000e+00 -2.780000e+01
      vertex   -1.160000e+01 1.210000e+01 -2.780000e+01
    endloop
  endfacet
  facet normal 0.000000e+00 0.000000e+00 1.000000e+00
    outer loop
      vertex   -1.160000e+01 1.210000e+01 -2.780000e+01
      vertex   -2.860000e+01 0.000000e+00 -2.780000e+01
      vertex   -1.160000e+01 0.000000e+00 -2.780000e+01
    endloop
  endfacet
  facet normal -1.000000e+00 -1.453772e-08 0.000000e+00
    outer loop
      vertex   -2.360000e+01 1.210000e+01 -4.700000e+00
      vertex   -2.360000e+01 0.000000e+00 -4.700000e+00
      vertex   -2.360000e+01 1.210000e+01 0.000000e+00
    endloop
  endfacet
  facet normal -1.000000e+00 -1.453772e-08 0.000000e+00
    outer loop
      vertex   -2.360000e+01 1.210000e+01 0.000000e+00
      vertex   -2.360000e+01 0.000000e+00 -4.700000e+00
      vertex   -2.360000e+01 0.000000e+00 0.000000e+00
    endloop
  endfacet
endsolid
